<svg xmlns="http://www.w3.org/2000/svg" viewBox="0 0 750 500"><g id="freepik--background-complete--inject-126"><g><path d="M678.80608,107.566l12.2791-19.7954-6.0987-3.778c-1.7786-1.102-2.7098-3.1236-2.5327-5.2085,.0958-1.1273,.1327-2.2616,.11-3.3983-.0422-2.1131,1.0261-4.091,2.8886-5.0899l6.2842-3.37-11.0137-20.5363-6.2834,3.37c-1.8066,.9688-4.0144,.869-5.6929-.3082-1.0161-.7123-2.0693-1.3648-3.1537-1.9533-1.80688-.9803-2.8847-2.9154-2.8195-4.97l.2259-7.1284-23.2837-.7236-.2159,7.1542c-.0622,2.0643-1.2898,3.9033-3.1602,4.7788-.5446,.255-1.084,.5261-1.6184,.8125-.5338,.2865-1.0582,.5859-1.57108,.898-1.75572,1.0691-3.95562,1.076-5.703-.0062l-6.10642-3.783-12.2791,19.7958,6.1156,3.7958c1.7747,1.1015,2.7021,3.1211,2.5225,5.2021-.0971,1.1248-.1355,2.257-.1143,3.3913,.03972,2.1111-1.0282,4.0862-2.889,5.0842l-6.2859,3.3712,11.0131,20.5356,6.2861-3.3707c1.8608-.998,4.0969-.795,5.83342,.4061,.93278,.6451,1.89658,1.2395,2.887,1.7805,1.83338,1.0014,3.00338,2.8909,2.939,4.9789l-.22132,7.1958,23.28332,.7236,.22208-7.1485c.0648-2.0891,1.3446-3.9074,3.2342-4.8007,.51872-.245,1.0345-.5052,1.5472-.7801,.5066-.2714,1.0047-.5553,1.4932-.8504,1.7961-1.0846,4.0274-1.145,5.81032-.0392l6.06808,3.7643Zm-17.5965-16.0159c-10.2592,7.291-24.4632,3.0045-28.9762-8.7444-3.0721-7.9977-.27938-17.2912,6.702-22.2575,10.2555-7.2956,24.49662-2.9973,29.0041,8.7533,3.0682,7.9992,.2536,17.2857-6.7299,22.2486Z" style="fill:#ebebeb;"></path><path d="M66.8636,312.0287c.8604,.4964,1.3336,1.4409,1.2828,2.4328-.0137,.2692-.0205,.5398-.0205,.8114,0,.2746,.0068,.5472,.0205,.8174,.0503,.9884-.4212,1.9298-1.2785,2.4244l-2.9308,1.6908,5.5083,9.5465,2.9299-1.6895c.8597-.4957,1.917-.4467,2.748,.0964,.4572,.2988,.9313,.5737,1.4207,.8229,.8808,.4492,1.447,1.3394,1.447,2.3281v3.3746h11.0252v-3.3746c0-.9887,.5664-1.8789,1.4471-2.3281,.4892-.2492,.9635-.5241,1.421-.8229,.8308-.5433,1.8879-.5921,2.7477-.0964l2.93,1.6895,5.5083-9.5465-2.9427-1.7002c-.8558-.4945-1.3262-1.4342-1.2756-2.4214,.0137-.2689,.0205-.5396,.0205-.811,0-.2716-.0068-.5422-.0205-.8114-.0508-.9917,.4229-1.9359,1.2833-2.4314l2.935-1.6898-5.5083-9.5463-2.9219,1.6879c-.8592,.4966-1.9161,.4486-2.7471-.0931-.4594-.2997-.9357-.5749-1.4275-.8248-.8819-.4483-1.4493-1.3393-1.4493-2.3289v-3.3738h-11.0252v3.3738c0,.9896-.5674,1.8806-1.4493,2.3289-.4917,.2499-.9682,.5251-1.4275,.8248-.8313,.5419-1.8881,.5897-2.7474,.0931l-2.9214-1.6879-5.5083,9.5463,2.9265,1.6884Zm16.6357-5.7884c4.9857,0,9.0329,4.0468,9.0329,9.0326s-4.0472,9.0239-9.0329,9.0239-9.0241-4.0381-9.0241-9.0239,4.0384-9.0326,9.0241-9.0326Z" style="fill:#ebebeb;"></path><path d="M657.42508,172.2627c.8604,.4964,1.3336,1.4409,1.28292,2.4328-.01382,.2692-.02062,.5398-.02062,.8114,0,.2746,.0068,.5472,.02062,.8174,.05018,.9884-.42132,1.9298-1.27862,2.4244l-2.9308,1.6908,5.50842,9.5465,2.92978-1.6895c.8597-.4957,1.917-.4467,2.748,.0964,.45722,.2988,.9313,.5737,1.4207,.8229,.8808,.4492,1.447,1.3394,1.447,2.3281v3.3746h11.0252v-3.3746c0-.9887,.5664-1.8789,1.4471-2.3281,.48922-.2492,.9635-.5241,1.421-.8229,.8308-.5433,1.8879-.5921,2.7477-.0964l2.93,1.6895,5.5083-9.5465-2.9427-1.7002c-.8558-.4945-1.32608-1.4342-1.2756-2.4214,.0137-.2689,.02052-.5396,.02052-.811,0-.2716-.00682-.5422-.02052-.8114-.0508-.9917,.4229-1.9359,1.2833-2.4314l2.935-1.6898-5.5083-9.5463-2.9219,1.6879c-.8592,.4966-1.9161,.4486-2.7471-.0931-.4594-.2997-.9357-.5749-1.42748-.8248-.88192-.4483-1.44932-1.3393-1.44932-2.3289v-3.3738h-11.0252v3.3738c0,.9896-.5674,1.8806-1.4493,2.3289-.4917,.2499-.96818,.5251-1.4275,.8248-.8313,.5419-1.8881,.5897-2.7474,.0931l-2.92128-1.6879-5.50842,9.5463,2.9265,1.6884Zm16.6357-5.7884c4.9857,0,9.0329,4.0468,9.0329,9.0326s-4.0472,9.0239-9.0329,9.0239-9.0241-4.0381-9.0241-9.0239,4.0384-9.0326,9.0241-9.0326Z" style="fill:#ebebeb;"></path></g><g><path d="M77.1495,262.6351c1.3396,1.3941,1.3396,3.4845,0,4.8254-.6977,.6432-1.5017,.9648-2.3589,.9648-.9117,0-1.7701-.3216-2.4665-.9648l-15.0662-15.2808c-.1607-.0539-.2138-.1608-.2685-.3217-.0531-.0537-.1607-.1076-.1607-.1076-.1062-.1608-.1062-.2678-.1609-.4286-.1062-.0536-.1607-.1608-.1607-.2144-.0531-.1072-.0531-.2685-.1063-.3218,0-.1608-.1076-.2146-.1076-.2685v-.3747c0-.1076-.0531-.1608-.0531-.3223,0-.0531,.0531-.2139,.0531-.2678v-.3753c0-.1071,.1076-.1608,.1076-.2146,.0532-.1609,.0532-.2677,.1063-.4287,0-.0537,.0545-.0537,.0545-.1068,.1062-.1608,.1609-.3754,.2671-.4832,0,0,0-.1069,.1076-.1069,.0531-.107,.1609-.2678,.3216-.3754l15.0662-15.2802c1.3394-1.2865,3.5377-1.2865,4.8254,0,1.3396,1.3403,1.3396,3.4852,0,4.8253l-12.7074,12.8136,12.7074,12.815Z" style="fill:#ebebeb;"></path><path d="M90.8204,264.3507l13.1351-31.2578c.6445-1.5011,2.3601-2.1982,3.9151-1.5548,1.4471,.5901,2.1434,2.3587,1.5003,3.8067l-13.1352,31.3117c-.4824,1.1255-1.6081,1.7688-2.7351,1.7688-.3215,0-.7494-.0532-1.071-.2138-1.5549-.5902-2.2527-2.3589-1.6092-3.8608Z" style="fill:#ebebeb;"></path><path d="M135.3197,251.7504s0,.0539-.0532,.0539c-.1076,.1069-.2139,.2678-.3747,.3754l-15.0662,15.2808c-.6431,.6432-1.5549,.9648-2.4119,.9648-.9117,0-1.7157-.3216-2.4134-.9648-1.3396-1.3409-1.3396-3.4313,0-4.8254l12.7074-12.815-12.7074-12.8136c-1.3396-1.3401-1.3396-3.485,0-4.8253,1.2863-1.2865,3.4858-1.2865,4.8253,0l15.0662,15.2802c.1608,.1076,.2671,.2684,.3747,.3754,.0532,0,.0532,.1069,.0532,.1069,.1076,.2147,.2153,.3224,.2685,.4832,0,.0531,.0544,.0531,.0544,.1068,.0533,.161,.0533,.2678,.161,.4825,0,.0537,.053,.0537,.053,.1608v.3753c0,.0539,.0532,.2147,.0532,.2678,0,.0537-.0532,.2147-.0532,.2684v.4286c0,.0539-.053,.0539-.053,.1077-.1077,.2141-.1077,.3754-.161,.4826,0,.0536-.0544,.0536-.0544,.1608-.0532,.107-.1609,.2678-.2685,.4822Z" style="fill:#ebebeb;"></path></g></g><g id="freepik--Floor--inject-126"><polygon points="61.5756 461.6044 139.9317 461.5085 218.28769 461.4737 375 461.4076 531.71219 461.4732 610.06828 461.5079 688.42438 461.6044 610.06828 461.701 531.71219 461.7356 375 461.8013 218.28769 461.7352 139.9317 461.7003 61.5756 461.6044" style="fill:#263238;"></polygon></g><g id="freepik--Window--inject-126"><g><g><g><rect x="142.7943" y="62.1608" width="464.41139" height="329.2673" style="fill:#fff;"></rect><path d="M607.20568,391.4281c-.1173,.1504-464.64468,.2565-464.77468,.3653-.2428-.1428,.0445-329.4067-.1303-329.6325l.0004-.4933,.4933,.0002c.1356-.1061,464.55199,.2787,464.7016,.202,.11258,.2873-.37062,329.253-.29032,329.5583h0Zm0,0c.0472,.1237-.67268-330.53-.0014-328.9773l-464.40989,.203,.4929-.4929c-.0287-.1393,.3254,330.8423-.4913,328.9038l464.40968,.3634h0Z" style="fill:#c7c7c7;"></path></g><rect x="142.7943" y="62.1608" width="464.41139" height="53.6463" style="fill:#FFBA00;"></rect><g><rect x="165.3888" y="97.0172" width="11.1894" height="1.8693" style="fill:#fff;"></rect><rect x="165.3888" y="105.3929" width="11.1894" height="1.8693" style="fill:#fff;"></rect><rect x="165.3888" y="101.2538" width="11.1894" height="1.8692" style="fill:#fff;"></rect></g></g><g><rect x="142.7943" y="62.1608" width="464.41139" height="8.521" style="fill:#37474f;"></rect><g><path d="M149.5672,66.4214c0,1.167-.9462,2.1133-2.1132,2.1133-1.1671,0-2.1134-.9463-2.1134-2.1133,0-1.1672,.9463-2.1131,2.1134-2.1131,1.167,0,2.1132,.9459,2.1132,2.1131Z" style="fill:#c7c7c7;"></path><path d="M158.1963,66.4214c0,1.167-.9461,2.1133-2.1133,2.1133-1.1671,0-2.1132-.9463-2.1132-2.1133,0-1.1672,.9461-2.1131,2.1132-2.1131,1.1672,0,2.1133,.9459,2.1133,2.1131Z" style="fill:#fff;"></path><path d="M166.8253,66.4214c0,1.167-.946,2.1133-2.1133,2.1133-1.1669,0-2.1129-.9463-2.1129-2.1133,0-1.1672,.946-2.1131,2.1129-2.1131,1.1673,0,2.1133,.9459,2.1133,2.1131Z" style="fill:#FFBA00;"></path></g></g><g><rect x="597.85278" y="115.8071" width="9.3529" height="275.621" style="fill:#dbdbdb;"></rect><path d="M602.52358,211.3618h0c-1.3341,0-2.4154-.9293-2.4154-2.0759V119.4965c0-1.1466,1.0813-2.0759,2.4154-2.0759h.0001c1.3341,0,2.4157,.9293,2.4157,2.0759v89.7894c0,1.1465-1.0816,2.0759-2.4158,2.0759Z" style="fill:#a6a6a6;"></path></g></g></g><g id="freepik--Text--inject-126"><g><path d="M217.34009,273.2324c2.9502-3.6054,8.35791-4.0976,11.9634-1.1474,7.2104,5.8994,19.66551,12.7822,31.3008,12.6181,8.1938,0,15.5688-2.458,20.4848-6.0635,4.9165-3.6044,7.04691-7.7021,7.04691-11.7988,0-2.1308-.49171-3.6054-1.47461-5.2441-.98339-1.6387-2.4585-3.2774-4.9165-4.916-4.7525-3.1143-12.7827-5.8999-22.4517-7.7027h-.3276c-7.7022-1.4751-14.9131-3.4414-21.14059-6.3916-6.22711-2.9497-11.63531-7.0464-15.24081-12.7822-2.458-3.9331-3.769-8.522-3.769-13.4385,0-9.8325,5.57181-18.3545,13.1103-23.9262,7.7022-5.5718,17.6988-8.6856,28.3511-8.6856,15.73241,0,27.3677,7.7022,35.7256,13.1104,3.7695,2.622,4.9165,7.8662,2.2944,11.6352-2.458,3.9331-7.7021,5.0806-11.6352,2.4585-8.3579-5.5723-16.3882-10.4883-26.3848-10.4883-7.3745,0-13.9297,2.294-18.3545,5.5718s-6.2275,6.8828-6.2275,10.3242c0,1.9668,.3281,3.2779,1.14741,4.5889,.81939,1.311,2.294,2.7856,4.42489,4.2607,4.2607,2.9497,11.6352,5.5718,20.4848,7.211h.3277c8.3579,1.6386,16.06,3.769,22.6152,6.8828,6.7192,3.2773,12.6186,7.5386,16.3882,13.602,2.458,3.9327,3.9331,8.8496,3.9331,13.9297,0,10.4883-5.89989,19.502-14.0938,25.4014-8.0302,5.8994-18.68209,9.3408-30.3178,9.3408-17.6988-.1641-32.6119-9.0127-41.9532-16.3877-3.605-2.9502-4.0967-8.3574-1.311-11.9629Z" style="fill:#FFBA00;"></path><path d="M330.25459,292.7334v-96.6885c0-5.0801,3.9331-9.0136,9.0132-9.0136h53.5889c4.7519,0,9.0137,3.9335,9.0137,9.0136s-4.2618,9.1773-9.0137,9.1773h-44.4116v29.9897h38.1841c4.916,0,9.0136,4.2608,9.0136,9.0137,0,5.0801-4.0976,9.1767-9.0136,9.1767h-38.1841v30.1543h44.4116c4.7519,0,9.0137,4.0967,9.0137,9.1768,0,4.917-4.2618,9.0137-9.0137,9.0137h-53.0972c-.3276,0-.3276-.1641-.3276-.1641l-.1641,.1641c-5.0801,0-9.0132-4.0967-9.0132-9.0137Z" style="fill:#FFBA00;"></path><path d="M517.89669,201.2891c10.1602,10.8159,16.5518,25.2373,16.5518,41.4614s-6.3916,30.8091-16.5518,41.4614c-9.6689,10.6524-24.0898,17.5352-39.167,17.5352-15.7324,0-30.1543-6.8828-40.1503-17.5352-10.1612-10.6523-16.2247-25.2373-16.2247-41.4614s6.0635-30.6455,16.2247-41.4614c9.996-10.816,24.4179-17.5352,40.1503-17.5352,15.0772,0,29.4981,6.7192,39.167,17.5352Zm-2.1308,41.4614c0-11.1441-4.42389-21.4683-11.1436-28.6787-6.8828-7.3745-16.0596-11.6358-25.8926-11.6358-10.4882,0-19.666,4.2613-26.5488,11.6358-6.8828,7.2104-11.1435,17.5346-11.1435,28.6787s4.2607,21.4683,11.1435,28.5151c6.8828,7.374,16.0606,11.7989,26.5488,11.7989,9.833,0,19.0098-4.4249,25.8926-11.7989,6.71971-7.0468,11.1436-17.3711,11.1436-28.5151Z" style="fill:#FFBA00;"></path></g></g><g id="freepik--Charts--inject-126"><g><g><g><rect x="65.2899" y="120.3251" width="184.34575" height="96.23751" style="fill:#fff;"></rect><path d="M249.65359,216.5399c-.10559,.0359-184.39409,.1834-184.50879,.2094-.1247-.0675-.0324-96.2974-.1222-96.4013l-.0001-.2495,.2496,.0001c.0244-.032,184.39769,.1408,184.43129,.1177,.01,.0801-.0567,96.2368-.0498,96.3236h0Zm0,0l-.1219-96.2374c.5004,.2481-184.35039,.2101-184.25929,.2947,.5507-1.5514,.0766,96.3226,.1992,95.9877-1.1252-.3588,184.47829,.0334,184.18199-.045h0Z" style="fill:#c7c7c7;"></path></g><g style="opacity:.5;"><rect x="77.5739" y="183.989" width="9.0401" height="19.2298" style="fill:#FFBA00;"></rect><rect x="96.4161" y="169.9618" width="9.0402" height="33.257" style="fill:#FFBA00;"></rect><rect x="115.2584" y="173.4961" width="9.0402" height="29.7227" style="fill:#FFBA00;"></rect><rect x="134.1006" y="166.7853" width="9.0402" height="36.4335" style="fill:#FFBA00;"></rect><rect x="152.9429" y="180.1282" width="9.0402" height="23.0906" style="fill:#FFBA00;"></rect><rect x="171.7851" y="168.976" width="9.0402" height="34.2428" style="fill:#FFBA00;"></rect><rect x="190.6274" y="154.7862" width="9.0402" height="48.4326" style="fill:#FFBA00;"></rect><rect x="209.46959" y="163.1281" width="9.0402" height="40.0907" style="fill:#FFBA00;"></rect><rect x="228.31189" y="145.9401" width="9.0402" height="57.2787" style="fill:#FFBA00;"></rect></g><g><polyline points="82.094 173.4961 100.9362 155.6422 119.7785 162.9458 138.6207 153.9056 157.4572 170.6693 176.3052 158.4257 195.1475 141.5065 213.98969 152.8247 232.832 135.4594" style="fill:none; stroke:#263238; stroke-miterlimit:10; stroke-width:.75px;"></polyline><path d="M86.614,173.4961c0,2.4964-2.0237,4.5201-4.52,4.5201s-4.5201-2.0237-4.5201-4.5201,2.0237-4.5201,4.5201-4.5201,4.52,2.0238,4.52,4.5201Z" style="fill:#FFBA00;"></path><circle cx="100.9362" cy="155.6422" r="4.5201" style="fill:#FFBA00;"></circle><circle cx="138.6207" cy="153.9056" r="4.5201" style="fill:#FFBA00;"></circle><circle cx="119.7785" cy="162.9458" r="4.5201" style="fill:#FFBA00;"></circle><circle cx="157.4572" cy="170.6693" r="4.5201" style="fill:#FFBA00;"></circle><circle cx="176.3052" cy="158.4257" r="4.5201" style="fill:#FFBA00;"></circle><path d="M199.66759,141.5065c0,2.4963-2.0237,4.52-4.5201,4.52s-4.5201-2.0237-4.5201-4.52,2.0237-4.5201,4.5201-4.5201,4.5201,2.0237,4.5201,4.5201Z" style="fill:#FFBA00;"></path><circle cx="213.98969" cy="152.8247" r="4.5201" style="fill:#FFBA00;"></circle><circle cx="232.832" cy="135.4594" r="4.5201" style="fill:#FFBA00;"></circle></g></g><g><g><rect x="202.19719" y="341.4675" width="345.60559" height="69.362" style="fill:#fff;"></rect><path d="M547.80269,341.4675l.0417,69.3619c.077,.1243-345.62819,.2056-345.64709,.2494l-.2494,.0001,.00011-.2495,.04039-69.3618c-.2775-.6064,345.64219,.2065,345.81429-.0001h0Zm0,0c.0622-.1786-346.49289,.5876-345.39739,.0007-.04-.195,.3643,70.5026-.2069,69.1127-.0075,.034,345.77661,.1322,345.56289,.2484l.0414-69.3618h0Z" style="fill:#c7c7c7;"></path></g><g><g><circle cx="243.3419" cy="376.14878" r="24.49989" transform="translate(-114.0391 105.99696) rotate(-20.01356)" style="fill:#FFBA00; opacity:.4;"></circle><circle cx="243.34187" cy="376.14878" r="16.93642" transform="translate(-178.9117 525.83207) rotate(-76.61871)" style="fill:none; stroke:#fff; stroke-miterlimit:10; stroke-width:3px;"></circle><path d="M243.34179,394.5859c-10.1665,0-18.4375-8.2714-18.4375-18.4375s8.271-18.4375,18.4375-18.4375v3c-8.5122,0-15.4375,6.9248-15.4375,15.4375s6.9253,15.4375,15.4375,15.4375,15.4375-6.9248,15.4375-15.4375c0-4.7031-2.209-9.2431-5.9087-12.1445l1.8516-2.3613c4.48481,3.5185,7.0571,8.8056,7.0571,14.5058,0,10.1661-8.271,18.4375-18.4375,18.4375Z" style="fill:#FFBA00;"></path></g><g><circle cx="309.17079" cy="376.14878" r="24.49989" transform="translate(-119.00256 144.32544) rotate(-22.14975)" style="fill:#FFBA00; opacity:.4;"></circle><circle cx="309.17077" cy="376.14878" r="16.93642" transform="translate(-128.3176 589.87381) rotate(-76.61871)" style="fill:none; stroke:#fff; stroke-miterlimit:10; stroke-width:3px;"></circle><path d="M309.17089,394.5859c-10.1665,0-18.4375-8.2714-18.4375-18.4375s8.271-18.4375,18.4375-18.4375v3c-8.5122,0-15.4375,6.9248-15.4375,15.4375s6.9253,15.4375,15.4375,15.4375c2.5723,0,5.1265-.6504,7.3857-1.8818l1.4356,2.6348c-2.6987,1.4697-5.749,2.247-8.8213,2.247Z" style="fill:#FFBA00;"></path></g><g><circle cx="374.99969" cy="376.14878" r="24.49989" transform="translate(-114.14449 169.14482) rotate(-22.14975)" style="fill:#FFBA00; opacity:.4;"></circle><circle cx="374.99967" cy="376.14878" r="16.93642" transform="translate(-77.7235 653.91556) rotate(-76.61871)" style="fill:none; stroke:#fff; stroke-miterlimit:10; stroke-width:3px;"></circle><path d="M374.99949,394.5859c-10.16649,0-18.43749-8.2714-18.43749-18.4375s8.271-18.4375,18.43749-18.4375v3c-8.5122,0-15.43749,6.9248-15.43749,15.4375s6.92529,15.4375,15.43749,15.4375c6.7603,0,12.6743-4.33,14.7163-10.7744l2.8594,.9063c-2.4375,7.6972-9.501,12.8681-17.5757,12.8681Z" style="fill:#FFBA00;"></path></g><g><circle cx="440.82859" cy="376.14878" r="24.49989" transform="translate(-109.28642 193.9642) rotate(-22.14975)" style="fill:#FFBA00; opacity:.4;"></circle><circle cx="440.82857" cy="376.14878" r="16.93642" transform="translate(-23.27144 723.17746) rotate(-77.26049)" style="fill:none; stroke:#fff; stroke-miterlimit:10; stroke-width:3px;"></circle><path d="M440.82809,394.5859c-10.166,0-18.4365-8.2714-18.4365-18.4375s8.2705-18.4375,18.4365-18.4375v3c-8.5117,0-15.4365,6.9248-15.4365,15.4375s6.9248,15.4375,15.4365,15.4375c8.5127,0,15.4375-6.9248,15.4375-15.4375,0-1.8222-.3183-3.6123-.9453-5.3213l2.8164-1.0332c.749,2.0401,1.1289,4.1788,1.1289,6.3545,0,10.1661-8.2715,18.4375-18.4375,18.4375Z" style="fill:#FFBA00;"></path></g><g><circle cx="506.65749" cy="376.14878" r="24.49989" transform="translate(-104.42836 218.78359) rotate(-22.14975)" style="fill:#FFBA00; opacity:.4;"></circle><circle cx="506.65747" cy="376.14878" r="16.93642" transform="translate(6.03779 760.2967) rotate(-74.09129)" style="fill:none; stroke:#fff; stroke-miterlimit:10; stroke-width:3px;"></circle><path d="M500.70609,393.5996c-7.4688-2.5478-12.4864-9.5605-12.4864-17.4512,0-10.166,8.2715-18.4375,18.4375-18.4375v3c-8.5127,0-15.4375,6.9248-15.4375,15.4375,0,6.6065,4.2012,12.4786,10.4551,14.6114l-.9687,2.8398Z" style="fill:#FFBA00;"></path></g></g></g><g><g style="isolation:isolate;"><g><path d="M481.44639,185.2096l-.3746,57.6049,54.075-17.4504c-7.5886-24.2588-28.6309-39.9916-53.7004-40.1545Z" style="fill:#37474f;"></path><path d="M483.10639,185.2421l-1.6722,2.8275,.0022-.3307,1.4855-2.5057c.0614,.0081,.123,.0085,.1845,.0089Zm1.7148,.0803l-3.4186,7.6086-.003,.4461,3.6139-8.038c-.06149-.0081-.1307-.0085-.1923-.0167Zm6.23381,.7329l-9.71121,15.9215-.0027,.4153,9.9521-16.2968c-.0769-.0159-.1614-.0241-.23819-.04Zm1.35219,.255l-11.1158,23.7123-.0037,.5769,11.3499-24.2493c-.0768-.0159-.1535-.0318-.2304-.0399Zm5.2944,6.7651l3.0136-4.4573c-.0843-.0391-.1764-.0704-.2685-.1017l-2.9748,4.4037-8.8778,13.1345-7.3475,10.8677-.0032,.4846,7.58061-11.2045,8.87759-13.127Zm3.4127-4.3163l-19.9111,34.8244-.004,.6231,20.1836-35.3457c-.0921-.0314-.1764-.0703-.2685-.1018Zm6.7724,3.0517l-26.7046,35.0418-.0035,.5308,27.0071-35.4091-.299-.1635Zm.621,.3349l-27.3722,41.8681-.0043,.6692,27.6753-42.3661c-.0996-.0545-.1993-.109-.2988-.1712Zm5.8296,3.7225l-33.2131,39.884-.0039,.6,33.5463-40.2434c-.1073-.0853-.2221-.1629-.3293-.2406Zm.6889,.5122l-31.011,45.4829,.6629-.2111,30.6774-45.0236c-.1072-.0852-.222-.1706-.3293-.2482Zm5.0872,4.3407l-34.5719,40.6521,.7709-.2488,34.0915-40.1245c-.0993-.0929-.1911-.1859-.2905-.2788Zm.5657,.5499l-27.1747,37.5309,.5934-.1884,26.864-37.056c-.0994-.093-.191-.1937-.2827-.2865Zm4.4598,4.9982l-28.79789,31.6204,.69379-.2263,28.3178-31.1235c-.0687-.0928-.1451-.1856-.2137-.2706Zm.7018,.9046l-20.7736,27.8957,.5165-.1659,20.4631-27.4516c-.0688-.0927-.1374-.1855-.206-.2782Zm3.5657,5.2924l-19.6912,21.1104,.5705-.1886,19.2651-20.6747c-.0455-.085-.0912-.1699-.1444-.2471Zm.5325,.9034l-14.2573,18.2766,.4316-.1358,13.9702-17.8937c-.0532-.085-.0989-.1698-.1445-.2471Zm2.9843,5.9732l-9.8414,9.9207,.4778-.1585,9.4545-9.5462c-.0304-.0694-.0607-.1465-.0909-.216Zm.5074,1.2265l-5.8857,7.254,.3624-.1208,5.6141-6.9096c-.0225-.077-.0529-.1465-.0908-.2236Z" style="fill:#263238;"></path></g><g><path d="M481.07179,242.8145l-54.0703,17.455c7.6323,24.3918,29.7733,40.0165,53.68751,40.1719,5.81129,.0378,11.72359-.8369,17.562-2.7213,17.91429-5.7817,30.73789-18.6349,36.66419-36.749l-53.8434-18.1566Z" style="fill:#FFBA00;"></path><g><path d="M427.00149,260.2695l-4.5084-.0293c7.6321,24.3918,29.7731,40.0165,53.6874,40.1719l4.50851,.0293c-23.91421-.1554-46.05521-15.7801-53.68751-40.1719Z" style="fill:#FFBA00;"></path><g style="opacity:.1;"><path d="M427.00149,260.2695l-4.5084-.0293c7.6321,24.3918,29.7731,40.0165,53.6874,40.1719l4.50851,.0293c-23.91421-.1554-46.05521-15.7801-53.68751-40.1719Z"></path></g></g><path d="M429.47,259.4703l-.62261,5.8497c-.0153-.0232-.0228-.0386-.03039-.0618l.62219-5.7728,.03081-.0151Zm6.11279-1.968l-4.52,12.5476c.01521,.0154,.0229,.0308,.0305,.0463l4.5435-12.6166-.054,.0227Zm2.1738-.7012l-2.7509,19.6667c.0228,.0309,.038,.054,.061,.0849l2.7516-19.7744-.0617,.0228Zm3.87741-1.2518l-5.73631,22.1397c.0229,.0308,.0381,.054,.05331,.0772l5.77559-22.2547-.09259,.0378Zm1.51079-.4901l-3.0259,27.6417c.0306,.0387,.0612,.0697,.0994,.1007l3.02671-27.7726-.10021,.0302Zm4.57121-1.4781l-6.69541,30.0488c.0306,.0387,.0688,.0697,.09941,.1006l6.73469-30.1946-.13869,.0452Zm1.11769-.3619l-2.7274,34.9746c.046,.031,.0919,.0698,.1455,.1085l2.7207-35.1283-.1388,.0452Zm-1.9008,35.6107c.046,.0387,.0919,.0775,.1455,.1087l6.3033-37.1898-.1851,.068-6.2637,37.0131Zm7.7439-37.4957l-.4899,42.2121c.0613,.0388,.1303,.0778,.1994,.109l.4755-42.3816-.185,.0605Zm.131,42.5468c.069,.039,.1303,.0702,.1993,.1014l4.9191-44.3449-.239,.083-4.8794,44.1605Zm6.1899-44.5905l-.2314,.0832,.3766,47.387c.0844,.0314,.1765,.0627,.2609,.1018l-.4061-47.572Zm.644,47.6581l.25331,.0939,3.93589-49.3128-.2852,.0982-3.904,49.1207Zm5.0372-49.4903l-.2853,.0904,1.5587,51.3255c.0998,.0237,.2073,.0552,.3149,.0713l-1.5883-51.4872Zm1.8494,51.5504c.1075,.0315,.2073,.0552,.3149,.0713l3.6324-53.4917-.3468,.1131-3.6005,53.3073Zm7.1853,1.0775l-2.4208-54.7618-.347,.1131,2.39821,54.7155c.123,.0085,.246,.017,.369,.0333h.00769c.123,.0085,.246,.0247,.369,.0332l1.9051-56.4107-.4084,.1281-1.8728,56.1493Zm7.2618-.0374l-4.1017-56.5266-.4009,.1282,4.1386,56.7653c.1154,.0008,.2385,.0015,.354-.0131,.0153,.0078,.0231,.0078,.0385,.0002,.1154,.0008,.2308-.0061,.34611-.0131l1.33569-56.3605-.3684-.1178-1.3419,56.1374Zm2.4318-55.7764l-.3684-.1178,5.139,55.5257c.1078-.0148,.2155-.0294,.3234-.0518l-5.094-55.3561Zm4.0527,1.3725l1.0413,53.9836c.10781-.0147,.2157-.0371,.3234-.0594l-1.0578-53.8222-.3069-.102Zm.9902,.3295l-.3224-.1098,7.9547,51.9055c.054-.015,.1158-.0377,.1697-.0527,.0308-.0075,.0617-.0227,.0925-.0301l-7.8945-51.7129Zm7.4211,41.7097l-1.1555-15.1306-1.9291-25.1124-.2532-.0863,1.92061,25.2124,1.15549,15.1383,.58151,7.5654,.18439,2.4089c.0925-.0302,.1773-.0605,.2621-.0907l-.1771-2.3319-.5892-7.5731Zm-2.1865-39.9449l-.26869-.0864,11.09619,46.726c.0695-.0303,.1313-.0684,.2007-.0987l-11.0282-46.5409Zm6.0406,2.0393l5.4584,44.2585c.0694-.0303,.1389-.0683,.2006-.0987l-5.4595-44.0893-.1995-.0705Zm1.0976,.3686l-.2072-.0705,10.313,40.5901c.054-.0304,.1004-.0609,.1468-.099l-10.2526-40.4206Zm13.432,4.5336l3.718,30.3703c.0387-.0383,.0697-.0689,.1083-.0994l-3.7187-30.2395-.1076-.0314Zm1.2972,.4391l-.1074-.0392,7.8352,24.1509c.0233-.0305,.0465-.0534,.0698-.0841l-7.7976-24.0276Zm-8.81909-2.9804l5.177,37.849c.04629-.0227,.10039-.0609,.14669-.099l-5.1779-37.6952-.14579-.0548Zm5.06249,14.0407l-3.4969-12.3074-.376-1.3255-.1534-.0549,.3984,1.418,3.4969,12.3074,5.56551,19.513c.03089-.0229,.06959-.0534,.10049-.0839l-5.535-19.4667Zm7.3947-9.8366l4.687,22.1151c.0233-.023,.03881-.0536,.0621-.0843l-4.67229-22.0072-.07681-.0236Zm1.1361,.3843l-.0844-.0314,6.6332,17.3663c.0232-.023,.0387-.0383,.0388-.0614l-6.5876-17.2735Zm3.5,1.1766l3.7563,14.9936c.0156-.0229,.031-.0383,.0312-.0613l-3.7415-14.9166-.046-.0157Zm1.9342,.651l-.046-.0157,4.782,8.6849c.0077-.0076,.01551-.0229,.01551-.0306l-4.75151-8.6386Zm3.5077,1.1844l2.0405,5.5902c.0079-.0078,.0156-.0231,.0157-.0307l-2.0332-5.5517-.023-.0078Zm3.26981,1.1059l-.02311-.0079c.1068,.1391,.2059,.2782,.2972,.425,0,0,.0078-.0077,.0078-.0154-.0915-.1314-.1828-.2704-.28189-.4017Z" style="opacity:.1;"></path></g><g><g><path d="M481.44639,185.2096c-31.3289-.2037-56.8975,25.4239-57.1043,57.2361-.0414,6.3652,.7612,11.7591,2.6594,17.8238l54.0703-17.455,.3746-57.6049Z" style="fill:#455a64;"></path><path d="M481.14829,230.8524l-.0028,.4385-49.94249-15.9402,.18709-.368,49.7582,15.8697Zm-50.2724-14.8807l50.22911,21.5419,.00269-.4077-50.0526-21.4868c-.0622,.1149-.1246,.2298-.1792,.3526Zm4.6332-7.4699c-.0853,.1072-.1707,.222-.2406,.337l45.9183,16.1061,.0025-.3922-45.6802-16.0509Zm-.68309,.9571l46.32859,20.4319,.003-.4615-46.0987-20.3073c-.0776,.1071-.163,.2219-.23289,.3369Zm11.711-12.3469c-.08511,.061-.16241,.1297-.23971,.1908l34.9801,13.6965,.0017-.2614-34.74209-13.6259Zm-1.22961,.992l35.9377,17.8645,.0021-.3309-35.7-17.7321c-.085,.061-.1624,.1298-.2398,.1985Zm-4.5658,4.2087c-.0929,.0841-.178,.1759-.2555,.2599l40.7491,14.9111,.0022-.3308-40.4958-14.8402Zm-1.10759,1.1621l41.562,20.0549,.00249-.4-41.3243-19.9072c-.08519,.0841-.1627,.1682-.24019,.2523Zm23.96219-15.4749c-.0693,.0149-.1387,.0375-.2081,.0601l17.9807,8.8861,.0011-.1615-17.7737-8.7847Zm-2.5289,.8912l20.273,12.4241,.0015-.2154-20.0663-12.2843c-.0693,.0226-.1388,.0529-.2082,.0756Zm-7.3378,3.4446c-.0848,.0379-.162,.0836-.2392,.1293l27.8326,11.5347,.0014-.2154-27.5948-11.4486Zm-1.7913,1.0422l29.3515,15.7292,.0017-.2615-29.1293-15.597c-.0772,.0379-.1544,.0836-.2239,.1293Zm21.2802-7.6232c-.0615,.0073-.1155,.0147-.1693,.022l8.3633,4.462,.0007-.1077-8.1947-4.3763Zm-3.7812,.6754l11.9467,8.1931,.00111-.1615-11.77841-8.069c-.06159,.0073-.1155,.0147-.1694,.0374Zm9.3383-1.17c-.0461-.008-.0923-.0006-.1384-.0009l2.7942,2.0643,.00071-.1077-2.65651-1.9557Zm-54.2239,62.855l22.594,5.6547,.2852-.0981-22.8935-5.7335c.0073,.0616,.0069,.1231,.0143,.1769Zm-.0845-1.2082c-.0004,.0616,.00691,.1231,.0065,.1847l30.6425,4.0992,.424-.1357-31.073-4.1482Zm1.2441,8.6005l8.8079,2.3341,.208-.0678-9.0459-2.3973c.0074,.0461,.0149,.0846,.03,.131Zm-.1495-.6703c.0074,.0462,.0148,.0925,.0299,.131l13.46,1.4106,.3161-.0979-13.806-1.4437Zm-1.1674-14.4845l35.3392,9.3452,.3623-.113-35.6923-9.4551c-.0082,.0691-.0087,.146-.0092,.2229Zm.0525-.9688c-.0083,.0769-.0164,.1536-.017,.2383l45.4249,6.8107,.5396-.1734-45.9475-6.8756Zm10.0236-6.0118l-7.56139-2.3799-1.282-.4007c-.02371,.0921-.03971,.1843-.05571,.2766l1.2514,.3928,7.5614,2.3722,15.12291,4.7598,22.90689,7.2182,.424-.1435-23.2523-7.328-15.1152-4.7675Zm-8.7562-3.18c-.0237,.0921-.0473,.1843-.0633,.2765l54.2942,12.7068,.5627-.1809-54.7936-12.8024Zm2.0775-7.1865l52.7625,19.9738,.47781-.1508-53.12291-20.1376c-.0469,.1073-.0859,.2071-.1174,.3146Zm.2975-.8058c-.0468,.1074-.086,.2226-.1175,.33l53.1278,15.8378,.00251-.3846-53.01281-15.7832Z" style="fill:#37474f;"></path></g><path d="M481.44639,185.2096l-4.5086-.0293c-31.3289-.2037-56.8975,25.4239-57.1043,57.2361-.0413,6.3652,.7612,11.7591,2.6596,17.8238l4.5084,.0293c-1.8982-6.0647-2.7008-11.4586-2.6594-17.8238,.2068-31.8122,25.7754-57.4398,57.1043-57.2361Z" style="fill:#37474f;"></path></g></g><g><path d="M563.90919,261.2042l-.1718-.057-.1565-.0556-3.1244-1.0929-.187-.0587-1.7821-.6243-.2092-.0688-2.8266-.9838-.2305-.0865-1.7302-.6032-.2543-.0815,.0008-.0076-3.2595-1.1308-.2755-.0991-1.9539-.6814-.3062-.1023-2.4311-.8486-.3283-.1125-2.1402-.7477-.3436-.1143-2.9533-1.0282-.3055-.1102-2.2447-.782-.29859-.1016-2.15541-.7494-.2535-.0891-2.4608-.8594-.2459-.0882-2.1332-.7393-.2085-.0765-3.006-1.0416-.2161-.0774-3.1549-1.0963-.171-.0647-2.4242-.8401-.1566-.0554-3.13189-1.0938-.13431-.0454-2.6404-.9174-.119-.0436-2.7671-.9619,2.636-.847,.112-.0344,3.0372-.9819,.1358-.0396,2.6046-.8426,.1519-.0456,3.3249-1.067,.1848-.0654,2.2272-.7128,.2002-.0636,4.896-1.5796,.24021-.0747,1.22589-.3947,.2563-.0808,4.7756-1.5383,.2961-.0921,.0008-.0076,1.0495-.3362,.3122-.098,4.9114-1.5778,.0009-.0078,.3758-.1143,1.0978-.3544,.3606-.116,5.1599-1.6594,.3767-.1221,.6008-.191,.3528-.1169,5.6886-1.8272,.3284-.1041,.0007-.0076,.5201-.1609,.3046-.0988,5.6572-1.8228c.0447,.1594,.0972,.3198,.142,.4794l-.0008,.0076c.0395,.1357,.08,.2639,.1196,.3996l-.0009,.0076,.0336,.1197-.0008,.0077c.0525,.1603,.0973,.3198,.142,.4793,1.1477,4.1613,1.8389,8.2505,2.0772,12.3066l-.0009,.0076c.0135,.164,.0192,.327,.0317,.4986l-.0008,.0076c.0975,1.9059,.0938,3.8163-.0169,5.7152-.0163,.3697-.0396,.7307-.0713,1.0987l-.0016,.0153c-.3569,4.7736-1.3492,9.5566-2.9646,14.4506Z" style="fill:#c7c7c7;"></path><path d="M513.76619,241.9047l.1381,1.8869-.119-.0436-.1311-1.8089,.112-.0344Zm3.0372-.9819l-.2587,3.7862,.13431,.0454,.26019-3.8712-.1358,.0396Zm2.8923-.9278l-.1519,.0456,.2671,5.8076,.1566,.0554-.2718-5.9086Zm3.3249-1.067l-.6289,7.8157,.171,.0647,.6427-7.9458-.1848,.0654Zm2.6122-.8418l-.2002,.0636,.285,9.7549,.2161,.0774-.3009-9.8959Zm4.0933,4.7555l-.7864,6.182,.2085,.0765,.7989-6.2271,.82191-6.4412-.24021,.0747-.8027,6.3351Zm2.5251-6.8853l-.2563,.0808-.7135,13.8023,.2459,.0882,.7239-13.9713Zm1.7369,14.8307l.2535,.0891,3.0813-16.5502-.2961,.0921-3.0387,16.369Zm4.3851-16.8049l-1.97619,17.6434,.29859,.1016,1.9898-17.843-.3122,.098Zm5.2236-1.6758l-4.6565,20.2028,.3055,.1102,4.7277-20.4351-.3758,.1143-.0009,.0078Zm1.4745-.4765l-2.8722,21.8177,.3436,.1143,2.8892-22.048-.3606,.116Zm5.5205-1.7754l-5.9089,24.4551,.3283,.1125,5.9573-24.6897-.3767,.1221Zm.9775-.3131l-4.127,25.7293,.3062,.1023,4.1736-25.9485-.3528,.1169Zm6.0414-1.9441l-7.9083,28.4571,.2755,.0991,7.9612-28.6603-.3284,.1041Zm.8492-.2726l-5.2225,29.9596-.0008,.0076,.2543,.0815,5.2736-30.1475-.3046,.0988Zm6.2226-1.035c-.0396-.1357-.0801-.2639-.1196-.3996l-9.3418,32.0865,.2305,.0865,9.23-31.7658,.0009-.0076Zm.0319,.135l-6.4362,32.6222,.2092,.0688,6.369-32.2117c-.0447-.1595-.0895-.319-.142-.4793Zm2.25,13.2921c-.0125-.1716-.0182-.3346-.0317-.4986l-6.6632,20.5218,.187,.0587,6.5071-20.0743,.0008-.0076Zm-.0177,5.7228l-3.3658,15.452,.1565,.0556,3.1364-14.3936,.0016-.0153c.0317-.368,.055-.729,.0713-1.0987Z" style="fill:#dbdbdb;"></path></g><polygon points="563.90809 261.2018 559.42509 260.7212 506.53719 242.3053 511.02009 242.7859 563.90809 261.2018" style="fill:#a6a6a6;"></polygon><polygon points="511.02009 242.7859 506.53719 242.3053 559.94 225.1245 564.423 225.605 511.02009 242.7859" style="fill:#a6a6a6;"></polygon></g></g></g><g id="freepik--Plant--inject-126"><g><g><g><path d="M566.70569,398.9162s9.1922-32.9934,16.533-44.1987c7.341-11.2055,21.0241-23.5133,21.0241-23.5133,0,0-.3211,50.8677-37.5571,67.712Z" style="fill:#FFBA00;"></path><path d="M567.364,398.3517c3.14929-5.1198,5.82489-10.5188,8.37969-15.9861,1.1307-5.8548,2.5067-11.7493,4.565-17.3492,.0388-.1063,.187-.0479,.1621,.0577-1.22,5.213-2.6386,10.3787-3.9274,15.5754,3.7107-8.0293,7.2372-16.1611,11.6572-23.7522,.8929-3.6793,2.5837-7.2183,4.2608-10.5575,.0483-.0966,.209-.0447,.1621,.0577-1.1799,2.5842-2.0281,5.2469-2.86749,7.9197,2.08969-3.3596,4.37988-6.598,6.98368-9.6476,.1611-.1886,.483,.0204,.32432,.223-5.90911,7.5419-9.988,16.1208-13.87261,24.808,4.1982-4.4886,8.0169-9.3996,11.534-14.4166,.0363-.0519,.1148,.0022,.081,.0557-3.6311,5.7734-7.813,10.9507-12.3512,16.0121-2.8294,6.3643-5.6109,12.755-8.9835,18.8092,6.74-5.6967,11.9239-13.068,17.0557-20.1808,.1154-.1601,.3624,.0085,.2532,.1742-5.1338,7.8039-10.44659,15.1533-17.8329,20.9331-1.5105,2.6463-3.1275,5.2321-4.9352,7.7095-.2993,.4106-.9138-.0142-.64849-.4453Z" style="fill:#263238;"></path></g><g><path d="M564.95819,398.9637s16.5227-30.4226,11.72281-59.9181c-4.79971-29.4958-9.93881-39.9981-9.93881-39.9981,0,0-25.9719,45.8759-1.784,99.9162Z" style="fill:#FFBA00;"></path><g><path d="M558.17609,351.1363c1.3188,8.5182,3.6312,16.4913,6.378,24.565,.0461-10.8249,.2524-21.6496,.5418-32.472-1.9024-6.5803-2.8581-13.3164-3.1181-20.1592-.0076-.2003,.291-.1882,.307,.0056,.4893,5.8878,1.5233,11.6326,2.89421,17.3468,.25109-8.9298,.547-17.8583,.87189-26.7832,.0054-.1501,.2336-.1465,.2334,.0041-.0135,13.9473-.006,27.8978-.0941,41.8474,2.1324-5.373,3.4692-10.9026,4.7631-16.5717,.0122-.0535,.1006-.0406,.0963,.015-.4961,6.514-2.4769,12.8127-4.8765,18.8575-.0643,8.9167-.1608,17.833-.3594,26.7469,2.795-9.4789,5.7805-18.6593,6.58931-28.6759,.01059-.1329,.21149-.1318,.20889,.0038-.2191,11.0469-3.066,22.2594-6.7094,32.647-.0413,.1164-.1084,.1967-.18449,.2616-.08311,3.2585-.17511,6.5169-.285,9.7747-.01591,.4676-.71641,.4534-.72531-.0128-.129-6.6665-.1739-13.3334-.1628-20.0003-3.7117-8.5677-5.68689-18.1235-6.5142-27.3834-.0071-.0821,.1328-.0991,.1454-.0169Z" style="fill:#263238;"></path><path d="M559.30849,346.4316c.5233,2.6134,1.0143,5.3742,1.1536,8.0373,.0048,.0918-.1346,.1038-.1572,.0187-.6836-2.5808-1.05689-5.3616-1.3594-8.0133-.02349-.2064,.3227-.2445,.363-.0427Z" style="fill:#263238;"></path><path d="M568.96909,324.1933c.0154-.0914,.1555-.0623,.1565,.0243,.0229,1.8282-.3462,3.7868-.8285,5.5433-.0403,.147-.2526,.0792-.22409-.0659,.36059-1.8289,.58319-3.6684,.89609-5.5017Z" style="fill:#263238;"></path></g></g><g><path d="M558.92169,398.9637s.6737-31.7565-8.4365-47.5416c-9.1104-15.7852-24.2204-23.8275-24.2204-23.8275,0,0,6.0928,55.9785,32.6569,71.3691Z" style="fill:#FFBA00;"></path><g><path d="M542.31919,371.8048c3.83,5.515,7.6346,10.8292,12.3282,15.6273-1.8181-6.4937-3.9303-12.8739-6.3059-19.1523-5.107-4.4782-10.1724-9.1188-13.3058-15.246-.0505-.0988,.0902-.1822,.149-.0873,3.3685,5.4268,7.874,9.7692,12.6145,13.9462-3.6386-9.4326-7.8708-18.6362-12.68119-27.6162-.12271-.2285,.21039-.4237,.34779-.2033,2.9178,4.6805,5.5648,9.5243,7.9515,14.494-.8537-3.395-1.5361-6.866-2.4111-10.2357-.0244-.0947,.11081-.1282,.1446-.0399,1.6154,4.2433,3.2231,8.9352,3.7409,13.4692,3.187,7.0385,5.8712,14.3074,8.02,21.7316-.2343-4.7606-.53269-9.5012-1.0239-14.2478-.0094-.0899,.1417-.1105,.1585-.0214,.9879,5.2712,1.5053,10.6334,1.3798,15.9954,1.3131,4.7323,2.4184,9.5209,3.30491,14.346,.02369,.1294-.16791,.1866-.19981,.0551-.4938-2.0224-1.0316-4.0279-1.5801-6.0291-.03509-.015-.0715-.0089-.1036-.041-4.8868-4.8945-9.5271-10.4753-12.5778-16.7156-.01669-.0336,.02831-.0596,.0495-.0292Z" style="fill:#263238;"></path><path d="M531.76329,345.9655c1.0159,1.0962,1.9465,2.2491,2.927,3.3785,.8666,.9985,1.9249,1.9392,2.6229,3.0632,.0271,.0435-.0271,.099-.0708,.0709-1.17539-.7461-2.1169-1.951-3.0297-2.9895-.9619-1.0951-1.8268-2.1757-2.5939-3.4113-.0549-.0884,.0729-.1891,.1445-.1118Z" style="fill:#263238;"></path></g></g></g><g><g><path d="M584.89549,401.2865l-1.1482,15.0427-3.4609,45.4721h-30.178l-3.4611-45.4721-1.1481-15.0427h39.3963Z" style="fill:#455a64;"></path><path d="M584.89549,401.2865l-.6981,9.1455-37.8841,1.5195-.8141-10.665h39.3963Z" style="fill:#37474f;"></path></g><rect x="542.817" y="393.906" width="44.75879" height="11.5322" transform="translate(1130.39279 799.3442) rotate(180)" style="fill:#455a64;"></rect></g></g></g><g id="freepik--Search_bar--inject-126"><g><g><rect x="245.48389" y="79.9376" width="428.58129" height="31.0841" style="fill:#fff;"></rect><path d="M674.06518,111.0217c-.3597-.3585-429.32189,1.0447-428.93759,.0008l-.0179-31.0848-.0002-.3746c.3962,.0503,428.68229,.229,429.00599,.3745l-.0503,31.0841h0Zm0,0l-.0496-31.084c.367-.2107-430.15379,1.027-428.15879,.0011l-.0157,31.0828c-2.4792-.9965,428.88809,.3243,428.22409,.0001h0Z" style="fill:#263238;"></path></g><rect x="642.98138" y="79.9376" width="31.0838" height="31.0841" style="fill:#FFBA00;"></rect><g><path d="M666.409,102.4536l-2.29792,1.7405-4.2567-5.6201-1.5571-2.0555c.3115-.1212,.6125-.2908,.8929-.5053,.5397-.4118,.9343-.9448,1.17982-1.5297l1.65418,2.1802,4.38482,5.7899Z" style="fill:#fff;"></path><path d="M661.88568,89.2199c-2.1073-2.7479-6.0455-3.267-8.7934-1.1593-2.7479,2.1073-3.267,6.0455-1.1594,8.7934,1.8932,2.4711,5.2639,3.139,7.9215,1.72,.3011-.1626,.59162-.3462,.8688-.5607,.512-.3943,.948-.851,1.301-1.3496,1.5506-2.1837,1.5746-5.205-.1385-7.4438Zm-2.6955,6.7933c-.2804,.2145-.5814,.3841-.8929,.5053-1.5228,.6089-3.3189,.1661-4.364-1.1975-1.2598-1.6439-.9517-4.0005,.692-5.2603,1.6439-1.2599,3.9972-.9481,5.2603,.6956,.8445,1.104,.9828,2.5297,.48442,3.7272-.24552,.5849-.64012,1.1179-1.17982,1.5297Z" style="fill:#fff;"></path></g><rect x="253.14709" y="86.0477" width=".83391" height="18.8637" style="fill:#263238;"></rect></g></g><g id="freepik--Character_1--inject-126"><g><g><g><g><g><path d="M357.01089,461.1525c-2.6033,.9817-78.0418,1.8622-80.98289,.1562-.32061-.1908-.21011-3.5195-1.26391-12.1383-.0527-.4109-1.7626-2.0201-4.4335-4.2905-10.0325-8.5218-33.6209-26.4982-33.6209-26.4982l37.8548-32.4598,36.24451,36.0929,9.42779,9.3835s30.7097,16.8412,33.7473,19.0582c3.0153,2.2281,5.63,9.7141,3.0268,10.696Z" style="fill: rgb(255, 196, 192);"></path><path d="M357.00979,461.1489c-2.6065,.9892-78.0437,1.864-80.9813,.1613-.3177-.1912-.2062-3.5178-1.266-12.1418-.0471-.4088-1.7604-2.0137-4.4352-4.2924-3.4872-2.9614-5.14429-4.3141-10.3377-8.4123l47.9715-17.2842,2.8505,2.8379,9.4227,9.3854s30.7128,16.8358,33.7468,19.0571c3.01391,2.2213,5.6352,9.7097,3.0287,10.689Z" style="fill:#ebebeb;"></path></g><g><path d="M362.20159,462.2259c-2.6264,.8939-82.9988,1.2515-85.8805-.5483-.6772-.4227-1.2703-5.0941-1.7274-11.4921-.0572-.8018-8.155-7.3622-9.26169-8.574l49.35509-16.2672,6.1807,5.8925s36.13321,17.0991,39.0809,19.4126c2.9329,2.3136,4.8787,10.6831,2.2529,11.5765Z" style="fill:#FFBA00;"></path><g><path d="M361.10549,459.2192c-12.6251-.2443-68.6359-.0719-81.13449,.6462-.10191,.0056-.10121,.0748,.00079,.0791,12.50821,.5155,68.5157-.07,81.1354-.5185,.2659-.0092,.2653-.2015-.0017-.2068Z" style="fill:#263238;"></path><g><path d="M324.88159,431.7939c-4.97259-.9009-11.0441-.1071-14.8215,3.4517-.1467,.1381,.0516,.3442,.2123,.2923,4.8931-1.5699,9.46461-2.5855,14.5924-3.116,.3614-.0376,.3726-.5628,.0168-.628Z" style="fill:#263238;"></path><path d="M328.478,433.936c-4.97211-.901-11.04331-.1068-14.82111,3.4522-.1465,.138,.0518,.3439,.2125,.2924,4.8929-1.5706,9.4644-2.5859,14.5923-3.1168,.3617-.0367,.3727-.5625,.01631-.6278Z" style="fill:#263238;"></path><path d="M332.07509,436.0788c-4.9723-.9013-11.04409-.1074-14.8213,3.4515-.1466,.138,.0517,.3438,.2124,.2924,4.8929-1.5702,9.4644-2.5854,14.5925-3.1163,.3614-.0375,.3726-.563,.0164-.6276Z" style="fill:#263238;"></path><path d="M335.672,438.2212c-4.97241-.9014-11.04391-.1074-14.82151,3.4514-.1466,.1382,.0517,.344,.21251,.2925,4.89319-1.5701,9.46439-2.5856,14.59239-3.1162,.3615-.0374,.3724-.5633,.01661-.6277Z" style="fill:#263238;"></path><g><path d="M333.99659,420.2586c-1.9657-2.6782-5.59459-1.4502-7.6589,.3033-3.3439,2.8393-6.2606,7.2624-7.59169,11.4184-.03281,.1027,.03589,.1644,.11769,.1787,.0169,.3778,.3581,.776,.7827,.6163,4.0938-1.5402,8.66161-2.6795,12.1609-5.4302,2.0429-1.6056,4.0488-4.5531,2.1893-7.0865Zm-8.6211,8.9123c-1.9954,.8063-4.0176,1.5099-5.9826,2.39,1.48711-2.2232,2.8704-4.499,4.5803-6.5713,.8162-.9887,1.6729-1.9889,2.6181-2.8583,1.4703-1.3524,7.30671-4.2448,6.4595,1.2103-.467,3.0073-5.2974,4.8675-7.6753,5.8293Z" style="fill:#263238;"></path><path d="M306.11319,430.7491c4.1036,1.7238,8.81,1.6109,13.1662,2.0102,.4513,.0415,.6747-.4334,.59061-.8018,.07489-.036,.12509-.1134,.06629-.2033-2.3861-3.6545-6.3711-7.1457-10.3481-8.9963-2.4559-1.1431-6.2804-1.3644-7.46519,1.739-1.12121,2.9362,1.59459,5.2457,3.99019,6.2522Zm-2.2608-3.5302c-2.2636-5.035,4.1308-3.7946,5.9072-2.8801,1.1416,.5872,2.2333,1.3241,3.2822,2.0613,2.1986,1.5444,4.136,3.3716,6.1596,5.121-2.128-.3275-4.2647-.4694-6.4025-.7177-2.5476-.2962-7.6983-.8092-8.9465-3.5845Z" style="fill:#263238;"></path></g></g></g></g></g><g><path d="M311.34209,420.0177l-46.6869,23.8084s-48.1878-44.1941-52.6259-44.5462c-4.31-.3421-67.2614,48.9151-100.0914,48.8395-34.005-.0783-35.4936-35.7151-35.4936-35.7151l49.6765-11.0689c35.8706-17.3904,70.6421-54.2436,94.9819-51.1335,26.43531,3.379,90.2394,69.8158,90.2394,69.8158Z" style="fill:#263238;"></path><g><path d="M300.01549,413.8034c-7.8796,3.8312-5.6691,2.6263-13.5079,6.5409-3.8359,1.9158-23.1391,11.499-26.4199,13.8813-.0724,.0526-.00769,.1789,.0771,.1509,3.8536-1.2624,22.9445-11.26,26.745-13.2455,7.7657-4.057,5.4941-2.9725,13.216-7.1117,.1448-.0776,.0379-.2875-.1103-.2159Z" style="fill:#37474f;"></path><path d="M256.48689,432.6567c-9.0441-8.0805-38.68-34.3858-39.8831-35.3641-.9682-.7875-1.9457-1.8115-3.0879-2.3475-.9743-.4572-1.936-.2156-2.8722,.2136-1.38169,.6332-2.7365,1.3308-4.1068,1.9887-2.6968,1.2948-53.872,31.5779-64.7521,36.999-9.9349,4.95-21.3782,6.2334-32.416,7.5067-1.3608,.1567-2.7245,.2909-4.089,.409-.0989,.0083-.0983,.1598,.0027,.1556,10.8396-.4563,21.5197-2.6029,31.8929-5.7182,10.4733-3.1454,66.2675-37.1374,71.6536-39.7324,1.22139-.5882,2.96319-1.8692,4.35-1.2206,.59829,.2797,1.09769,.7711,1.59749,1.1927,.592,.499,1.1841,.998,1.7759,1.4972,2.2893,1.9298,38.6179,33.6349,39.8102,34.5493,.0892,.0684,.2121-.0503,.1243-.129Z" style="fill:#37474f;"></path></g><path d="M300.92,425.34l-36.26,18.49s-48.19-44.2-52.63-44.55c-4.31-.34-67.26,48.91-100.09,48.84-34.01-.08-35.5-35.72-35.5-35.72l49.68-11.06c10.57-5.12,21.03-11.94,31.17-18.93l143.63,42.93Z" style="opacity:.1;"></path></g></g><g><path d="M75.3928,410.3068s-1.3678,36.0985,15.5887,47.5442c16.9567,11.4458,134.38539,1.4214,151.80299-5.6329,17.41751-7.0543,15.893-35.8736-4.0857-41.1319-19.0011-5.0009-98.1164-2.3764-100.1197-3.0124-.5011-.1591,6.6574-5.1872,6.6055-5.4581l-18.3481-4.1865-51.4437,11.8776Z" style="fill:#263238;"></path><g><path d="M101.5477,411.3478c-.0328-.1354-.2428-.0759-.2328,.055,.278,3.6253-.7897,7.5382-2.9719,10.4599-2.5029,3.351-6.4024,5.408-9.9182,7.5177-.3378,.203-.0323,.7328,.3232,.5974,2.1758-.828,4.2978-1.9572,6.2431-3.2424,1.7714-1.1707,3.3835-2.5949,4.5551-4.3798,2.16-3.291,2.9282-7.168,2.0015-11.0078Z" style="fill:#37474f;"></path><path d="M137.0426,404.7833c-.8892-.9811-1.8484-1.9063-2.7712-2.8561-2.1821-2.2453-4.3744-4.5006-6.6472-6.6546-.215-.2038-.5832,.1333-.3823,.3595,1.5521,1.7513,3.1834,3.4379,4.7905,5.1388,.824,.8719,1.6503,1.7411,2.482,2.6053,.7769,.8072,1.7235,1.596,2.3249,2.5475,.6242,.9881-.0354,1.9191-1.0925,2.11-.9463,.1706-1.8613-.2515-2.6337-.7591-1.7544-1.1531-3.1936-2.8815-4.6888-4.3375-.9149-.8907-1.8294-1.7802-2.7567-2.6583-.9857-.9338-2.0282-1.8114-3.0109-2.7435-.0634-.0601-.1699,.038-.1126,.1058,.8754,1.0327,1.6928,2.1217,2.5697,3.158,.8761,1.0352,1.7627,2.0591,2.6633,3.0732,.8523,.9603,1.7305,1.8967,2.6306,2.8126,.7646,.778,1.6241,1.5277,2.6088,2.0147,1.5908,.7872,4.2536,.7892,4.9228-1.2407,.3307-1.0025-.2421-1.9537-.8967-2.6756Z" style="fill:#37474f;"></path><path d="M240.35229,452.502c-6.132,.5585-12.2428,1.3596-18.3745,1.9352-6.0816,.571-12.1722,1.0459-18.2686,1.4292-12.2438,.7697-24.5098,1.1875-36.7794,1.227-12.3974,.0398-25.7913-.2264-38.1675-1.0375-5.9221-.3881-11.9146-.6343-17.7994-1.4613-5.3094-.7461-10.2077-2.5751-14.3965-6.0879-8.4931-7.123-12.3974-18.2173-14.4473-28.9376-.2747-1.4385-.519-2.882-.7421-4.3296-.0151-.0984-.1641-.0847-.1504,.0148,1.5186,11.0353,4.0785,22.4693,11.6967,30.8777,3.2958,3.6378,7.3637,6.5194,11.9968,7.998,5.6468,1.8018,11.7755,1.8766,17.6261,2.2433,12.4238,.7789,25.8747,1.1011,38.3183,1.1658,12.5221,.065,25.0478-.2362,37.5478-.9553,12.49871-.7192,24.9844-1.7991,37.41271-3.3147,1.51819-.1854,3.03039-.3847,4.54079-.6275,.0859-.0138,.0746-.1475-.0135-.1396Z" style="fill:#37474f;"></path><path d="M198.22489,408.1368c-3.9062-.2868-7.804-.5629-11.7197-.6865-3.9542-.1247-7.9102-.1915-11.8658-.2404-7.824-.096-15.6629-.123-23.485,.0754-4.4448,.1124-8.8735,.4114-13.3028,.7878-.1428,.0122-.1155,.2144,.0211,.2169,7.8463,.1425,15.6813,.0693,23.528,.0234,7.8296-.0457,15.6602,.075,23.4871,.2543,4.4394,.1018,8.8755,.1065,13.3153,.1471,.3261,.003,.3498-.554,.0218-.578Z" style="fill:#37474f;"></path><path d="M146.0734,402.1571c-3.0431,1.5218-5.8602,3.4301-8.6007,5.4379-2.7058,1.9825-5.4639,4.0466-7.8645,6.3935-.0688,.0676,.0356,.1516,.1056,.1129,2.9356-1.6245,5.7264-3.5939,8.4963-5.4862,2.7818-1.9,5.5453-3.8337,8.08-6.0576,.1792-.157,.0346-.5262-.2167-.4005Z" style="fill:#37474f;"></path></g></g></g><g><g><g><path d="M114.2475,349.1225c21.18,7.5628,42.2224,8.5794,48.2106,7.1287,7.5733-1.8348,33.7629-28.1909,34.9321-29.6476,2.8675-3.6248-20.9089-23.1532-24.141-19.4091-4.9211,5.7005-20.9524,26.1031-23.2324,26.5739-2.3768,.4805-16.3807,1.9316-36.4468,3.0657-13.86,.7747-12.4645,7.5962,.6775,12.2884Z" style="fill: rgb(255, 196, 192);"></path><g><path d="M207.79419,314.6687c-2.7157,5.5985-12.7473,14.8761-16.0281,16.1831-3.2807,1.3071-19.6202-15.223-19.1408-18.8153,.4794-3.592,11.0822-21.7336,16.8159-24.4606,5.7336-2.7272,21.1662,21.2926,18.353,27.0928Z" style="fill: rgb(255, 196, 192);"></path><g><path d="M181.4647,293.5422c1.8657,2.7179,3.9984,1.0454,3.9984,1.0454,0,0-4.542,4.5018-2.9202,7.7652,1.5716,3.1409,5.9399,.281,6.2555,.0803-.2383,.2405-4.304,4.4861-2.3364,7.5975,2.0476,3.2318,5.9396-.3918,6.19-.6272-.1535,.2975-2.1196,4.265-.0871,6.2887,3.4941,3.4762,8.8003-6.5303,12.6612-7.54,0,0,2.4578,6.3475,2.5681,6.5166,0,0,5.2432-9.4169,3.5905-14.5479-.8713-2.7051-3.5645-2.4267-3.5645-2.4267,0,0,2.0262-2.8496,.5543-5.348-.759-1.2804-3.48249-1.2057-3.48249-1.2057,0,0,1.527-2.3491,.079-4.4898-1.14991-1.7124-3.70321-1.3709-3.70321-1.3709,0,0,10.0357-10.1731,7.673-13.1157-4.0694-5.0679-24.31679,17.9009-27.1679,17.591-1.4149-.1537-1.1208,2.6033-.3082,3.7872Z" style="fill: rgb(255, 196, 192);"></path><g><path d="M200.85579,285.2715c.0539-.0234,.032-.1036-.0271-.0887-5.8015,1.477-11.7228,4.8776-15.5779,9.5043-.1265,.152-.2248,1.0655-.0726,.9046,3.8061-4.0259,9.8496-7.7992,15.6776-10.3202Z" style="fill:#263238;"></path><path d="M204.95279,291.0676c.0635-.0269,.0191-.1325-.0524-.1136-5.9697,1.5541-12.5338,5.568-16.34939,11.4242-.1308,.2011-.0469,.5124,.1213,.2927,2.8322-3.702,11.0224-9.3608,16.2805-11.6033Z" style="fill:#263238;"></path><path d="M192.5268,309.9037c3.8758-5.4739,9.1161-9.1547,15.0421-12.1614,.0773-.0392,.014-.1442-.0593-.1291-3.2998,.6808-6.8774,2.9913-9.5091,5.0243-2.5203,1.9478-4.4036,4.2112-5.6651,7.1307-.0488,.1134,.1086,.2526,.1914,.1355Z" style="fill:#263238;"></path></g><path d="M185.3512,294.5795c-.1515,.1826,.5795,.2014,.4352,.3898-1.5684,2.0442-4.1972,5.8397-2.8232,7.493,1.1043,1.3224,3.6471,.7562,4.5383,.1558l2.2415-1.5103-1.5806,2.1984c-.6898,.9595-1.2831,2.0695-1.621,3.1948-.3398,1.1222-.38,2.3305,.1889,3.2287,.5762,.95,1.5675,1.4145,2.6193,1.1081,1.0513-.2597,2.0929-1.0009,2.9132-1.8015l2.2922-2.2369-1.4281,2.8509c-.3868,.7724-.7029,1.6473-.879,2.5022-.1708,.8552-.202,1.7482,.1069,2.4684,.2998,.7074,.9915,1.2582,1.7262,1.2743,.7729,.0281,1.6116-.3906,2.3655-.8646,1.5284-.9866,2.8653-2.3151,4.2557-3.5656,.6921-.632,1.3863-1.2682,2.1116-1.8707,.7276-.5832,1.4903-1.2067,2.4123-1.4422-.8864,.3272-1.55709,1.0129-2.2397,1.636-.6698,.6493-1.3092,1.3313-1.9511,2.0146-1.2837,1.3666-2.5915,2.7279-4.1577,3.8696-.7941,.5367-1.675,1.0917-2.8038,1.1266-1.1654,.0271-2.1873-.7823-2.6189-1.7818-.4448-1.0177-.3872-2.0901-.2154-3.0592,.1912-.9828,.5008-1.8914,.9377-2.8011l.8641,.614c-.9619,.9535-2.0226,1.7703-3.4203,2.1624-.6882,.1893-1.5076,.1726-2.2115-.1559-.7083-.3265-1.2304-.8657-1.6073-1.4871-.7766-1.2953-.6398-2.8418-.2405-4.0879,.4136-1.2815,1.0437-2.4147,1.8378-3.4866l.6609,.6882c-1.1589,.7249-3.9323,1.6679-5.9028-.1678-2.2102-2.7768,2.3031-7.797,3.1936-8.6566Z" style="fill:#263238;"></path></g><g><path d="M172.6253,312.0365s-1.534-17.1396,1.9439-21.8056c3.4777-4.666,16.3514-3.6526,20.9858-2.5342,6.39659,1.5437,4.645,5.9743,1.345,7.3043-3.8225,1.5407-10.077,1.8544-10.5116,1.8836,0,0,5.2852,8.5914,1.9864,15.1563-3.2987,6.5649-15.7495-.0044-15.7495-.0044Z" style="fill: rgb(255, 196, 192);"></path><path d="M186.2606,286.7561c2.6025-.2531,5.2326-.2747,7.8658,.0373,1.9749,.2386,4.3804,.6425,5.8045,2.3675,4.3105,6.9268-9.0555,8.9846-13.5966,8.6108l.7642-1.4216c.7719,1.1363,1.2954,2.264,1.7392,3.477,1.3219,3.5254,1.4532,7.6425,.0104,11.0979,.9686-5.3681-.8208-10.8009-4.21-14.9139l1.8046-.0136c3.0108-.0697,11.9818-.9113,12.5448-4.5319,.0822-.8423-.6308-1.7209-1.6073-2.2949-3.349-1.5911-7.4016-1.8673-11.1196-2.4146h0Z" style="fill:#263238;"></path></g></g></g><g><path d="M168.2277,310.4336l22.9755,28.6053s-22.7442,18.7319-30.4243,20.1205c-7.6801,1.3888-34.3342-4.1691-48.319-8.79-13.871-4.5832-12.5726-13.9638-1.3799-14.7092,11.193-.7454,38.5571-2.9217,39.4568-3.4462,.8996-.5244,17.6909-21.7804,17.6909-21.7804Z" style="fill:#FFBA00;"></path><path d="M177.1124,332.609c-2.5476-3.2004-5.0708-6.4222-7.7376-9.5284-1.5149-1.7646-3.0212-3.5386-4.5532-5.289-.0578-.0661-.179,.0234-.1261,.0954,2.4296,3.3134,4.8745,6.6311,7.4559,9.8327,2.5679,3.1857,5.1095,6.3931,7.7196,9.5459,1.484,1.7926,3.0164,3.5342,4.6083,5.2352,.0316,.0337,.0929-.0113,.0663-.0502-2.3208-3.3978-4.8677-6.619-7.4332-9.8416Z" style="fill:#263238;"></path><path d="M139.7276,357.1631c-9.5779-1.7994-20.0896-4.4163-27.2651-6.7902-13.8753-4.5917-12.5797-13.9694-1.3798-14.7106,.8411-.0531,1.7809-.1165,2.8-.1901l25.8449,21.6909Z" style="opacity:.1;"></path></g></g><path d="M73.2174,416.6507c.1787,.1794,67.177-14.7992,67.7952-15.5832,.8632-1.1034-11.3391-51.478-24.0488-66.473-3.1785-3.7494-13.2434-3.4461-17.7328,.3716-22.2473,18.9194-26.6515,81.0368-26.0136,81.6846Z" style="fill:#FFBA00;"></path><g><g><path d="M94.0325,338.5963c-13.329,10.3452-48.3968,52.0878-40.9863,61.9244,7.4633,9.9068,57.8933,6.3321,72.6092,2.0219,4.3773-1.282-6.99-29.1176-11.6732-30.4789-3.8987-1.1334-25.7362,4.8949-26.1358,3.6297-.4517-1.429,4.3507-10.6702,12.0892-27.552,8.9235-19.4655-.0159-14.1143-5.9031-9.5451Z" style="fill: rgb(255, 196, 192);"></path><g><g><path d="M134.5217,368.7255c9.7454,.2075,12.2156,1.7567,20.5335-2.436,5.4579-2.751,9.557-.4468,5.8626,4.7266-6.0425,8.4616-18.672,10.8345-23.2874,10.3963l-3.1087-12.6869Z" style="fill: rgb(255, 196, 192);"></path><path d="M107.7262,373.8242s11.6674-4.2224,22.0746-5.0291c7.197-.5573,22.9897-.0248,35.3387,17.6307,2.9288,4.1875,4.1328,12.2319-3.1353,7.1299-5.1625-3.6244-7.3415-7.4824-10.7282-9.0435,0,0,.3168,10.4143-3.993,13.1846-1.9259,1.2384-7.2621,4.4946-11.7783,6.4376,0,0-.6877-.8698-1.4019-2.0962,0,0-4.2705,2.2079-11.3434,.3671l-15.0332-28.5811Z" style="fill: rgb(255, 196, 192);"></path><g><path d="M136.7545,369.36c3.034,2.2606,9.3838,7.1589,13.1845,12.9725,4.2214,6.4578,10.6129,20.0349,5.8139,23.1021-3.519,2.2491-6.415-2.7202-6.415-2.7202,0,0,1.4589,6.1688-2.1642,7.505-3.3015,1.2178-5.3116-2.7608-5.3116-2.7608,0,0,.2416,3.8942-3.1646,4.4545-4.0968,.6743-3.9308-7.5977-8.6706-10.5005-1.0642-.6517,6.7276-32.0526,6.7276-32.0526Z" style="fill: rgb(255, 196, 192);"></path><g><path d="M142.3717,385.6551c2.5047,2.5934,6.6819,9.9434,7.0417,16.918,.0081,.1578-.1068,.2489-.145,.1061-2.0269-7.5946-5.3698-14.2463-6.9576-16.9844-.0212-.0367,.0329-.0687,.0609-.0397Z" style="fill:#263238;"></path><path d="M135.9769,390.106c1.931,2.4599,5.898,10.2278,6.0199,17.3077,.0027,.1583-.119,.2416-.1508,.0975-1.791-8.0223-4.5108-14.5412-5.9324-17.3693-.0189-.0378,.0384-.0677,.0633-.0359Z" style="fill:#263238;"></path></g></g></g><path d="M151.2883,384.4495c2.9586,1.4146,4.7338,3.2641,7.062,5.5065,1.152,1.1092,2.3244,2.2033,3.5935,3.1785,1.1556,.8883,2.8546,2.223,4.3749,1.3684,.8461-.4757,1.01-1.5627,.9811-2.4453-.0326-.9914-.6966-2.9196-1.1383-3.8093-.0224-.0452,.0556-.0856,.079-.0405,.4118,.7945,1.1884,2.5673,1.3601,3.4478,.1554,.7972,.2307,1.7072-.1099,2.4697-.7325,1.6396-2.7882,1.5391-4.1428,.8378-.8103-.4198-1.5472-1.0049-2.2542-1.5772-.6837-.5532-1.3402-1.1391-1.9813-1.7409-1.3159-1.2354-2.5594-2.5453-3.8608-3.7957-1.4302-1.3739-2.4539-2.0981-4.0268-3.3034-.0532-.0409,.0049-.1243,.0635-.0964Z" style="fill:#263238;"></path><path d="M156.0329,396.4257c-.5182-1.9005-3.6831-9.9784-4.82-11.9126-.029-.0494,.0388-.0965,.0737-.0504,2.0517,2.6849,4.9609,9.4073,5.5531,11.5063,.5852,2.0743,1.2203,4.7074,.8739,6.8589-.5219,3.2458-2.7737,3.514-3.5953,3.5445-.9804,.0365-1.9075-.3177-2.6892-.8969-.8702-.6448-1.6244-1.8128-2.1247-2.7559-.0264-.0498,.0424-.1005,.0738-.0506,.9185,1.4592,2.584,3.0223,4.385,3.0746,.7813,.0226,1.6121-.2009,2.1814-.7595,.6695-.657,.871-1.6304,.9396-2.5308,.1553-2.038-.319-4.0752-.8513-6.0276Z" style="fill:#263238;"></path></g></g><g><path d="M107.7202,372.421l10.297,35.2702s-63.1205,3.8718-66.6696-7.5782c-3.5489-11.4502,26.7936-49.1429,39.4007-59.5121,14.6105-12.0169,15.4213-6.999,10.6992,4.9778-4.9437,12.539-13.4729,30.4504-13.4729,30.4504l19.7456-3.6081Z" style="fill:#FFBA00;"></path><g><path d="M68.0543,381.7701c3.1299-1.5194,6.4091-2.7375,9.7236-3.7879,3.283-1.0403,6.6628-1.7226,10.059-2.2692,1.9402-.3123,3.8885-.5296,5.8394-.7603,.0597-.0073,.0679,.0838,.0091,.0924-3.4176,.4952-6.8071,1.2921-10.1421,2.1775-3.3223,.882-6.6227,1.822-9.9099,2.8253-1.8596,.5675-3.6915,1.2231-5.5305,1.8526-.0863,.0295-.128-.0919-.0486-.1304Z" style="fill:#263238;"></path><path d="M107.5719,372.2994c-.3196,.0306-17.8639,2.8484-18.4515,3.0151,.1099-.24,4.5249-8.6175,5.1811-9.8423,.0654-.122,.1247-.2462,.1891-.3686,.3968-.5296,.7966-1.0562,1.1724-1.6019,.4819-.6991,.9586-1.4018,1.4359-2.1038,.0147-.0214-.016-.0462-.0321-.025-.5083,.6778-1.0178,1.355-1.5222,2.0361-.2334,.315-.4563,.6369-.6774,.9599,.4408-.8689,.8704-1.7422,1.3002-2.6197,.6852-1.3992,1.3246-2.8154,1.9605-4.2375,.0206-.046-.0481-.0735-.0713-.0304-1.3002,2.4415-2.6764,4.8403-3.9834,7.2774-1.3047,2.4329-6.2659,11.3931-6.2381,11.3896,.0265,.0293,19.3915-3.52,19.7689-3.6109,.1475-.0356,.125-.2531-.0321-.238Z" style="fill:#263238;"></path><path d="M105.254,393.8521c-1.1253-3.9328-2.2201-7.8758-3.4916-11.7672-.7224-2.2108-1.4331-4.4268-2.1767-6.6309-.028-.0832-.1742-.047-.1531,.0398,.9732,3.9918,1.9587,7.9934,3.1148,11.9403,1.1498,3.9269,2.267,7.8638,3.4683,11.7764,.6831,2.2248,1.4304,4.4209,2.2482,6.6024,.0162,.0432,.0903,.0251,.0805-.0209-.8402-4.0282-1.9571-7.9798-3.0904-11.9399Z" style="fill:#263238;"></path><path d="M118.7205,408.3307c-.4476-1.1067-.9835-2.6846-1.477-3.7718-.1305-.2872-.3393-.2652-.2452,.0293,.3167,.9901,.5355,2.0821,.8435,3.0956-.8824,.0324-1.7658,.0458-2.6487,.0874-1.0212,.0478-2.0417,.1008-3.0627,.1454-1.9993,.0874-3.9995,.154-6.0002,.2002-4.0518,.0934-8.1056,.1009-12.1576,.0225-8.1224-.1571-16.2601-.6115-24.3246-1.6099-2.2557-.2791-4.5082-.6021-6.7469-.9944-2.2739-.3985-4.7288-.8432-6.5752-1.385-.0587-.0173-.0875,.0828-.0291,.105,1.8899,.7163,3.6691,1.2574,5.6431,1.6757,2.0149,.4272,4.043,.7986,6.0799,1.103,4.0567,.606,8.145,.9957,12.2364,1.2747,8.1129,.5532,16.2537,.7539,24.384,.6312,2.2784-.0342,4.5561-.0955,6.8332-.1834,1.1486-.0442,2.2981-.0891,3.4459-.1554,1.1483-.0662,3.8774-.0819,3.8012-.2701Z" style="fill:#263238;"></path></g></g></g><g><g><rect x="123.12457" y="412.78478" width="80.78445" height="3.25843" transform="translate(-1.79213 .71161) rotate(-.24799)" style="fill:#455a64;"></rect><rect x="123.12474" y="412.86263" width="44.70036" height="3.25843" transform="translate(-1.79264 .63353) rotate(-.24799)" style="fill:#a6a6a6;"></rect></g><g><polygon points="166.4758 416.0274 237.27719 415.7219 247.07359 367.5926 176.272 367.8981 166.4758 416.0274" style="fill:#a6a6a6;"></polygon><polygon points="169.6861 416.0136 240.48739 415.7081 250.28379 367.5788 179.4823 367.8843 169.6861 416.0136" style="fill:#c7c7c7;"></polygon><path d="M205.27069,392.8907c-.2626,2.6074,1.6371,4.7119,4.2432,4.7006,2.6062-.0112,4.9319-2.134,5.1946-4.7413,.2628-2.6075-1.6372-4.712-4.2433-4.7008-2.6061,.0113-4.9319,2.134-5.1945,4.7415Z" style="fill:#ebebeb;"></path></g></g><g><path d="M112.2954,349.2298s-13.3195-9.9951-20.9326-8.7274l-5.7329,6.6141s-2.0394,.9787-2.8759-.2851c-2.0684-3.1251-3.4549-11.1593,2.8035-17.3144,5.7308-5.6362,16.1944-6.649,25.1857-5.5006,8.6346,1.103,16.6033,5.6904,14.758,11.4704-1.8456,5.78-13.2058,13.743-13.2058,13.743Z" style="fill:#FFBA00;"></path><path d="M112.7961,346.561s8.675-8.0904,9.1304-12.2788c.4552-4.1884-8.1665-6.9898-13.6061-7.8184-8.4192-1.2826-13.874-.0364-17.8498,4.8895-3.9759,4.9258,22.3255,15.2077,22.3255,15.2077Z" style="opacity:.1;"></path><g><g><path d="M113.415,344.4633c-2.9821,.7318-10.3512-3.6502-13.7316-7.9057-.2302-.293-.3208-3.773-.631-7.9965-.1983-2.5622-.4793-5.4107-.9234-7.991l16.8619,1.1458s-.6599,5.6836,.1422,10.1777c.071,.375,.1685,.7184,.2935,1.0399,.0137,.0479,.0379,.1042,.0533,.1713,.6746,1.9551,2.6045,10.2127-2.0649,11.3585Z" style="fill: rgb(255, 196, 192);"></path><path d="M115.4245,332.9353c.0144,.0487,.0417,.097,.0576,.1705-.4997,.1595-1.0384,.2838-1.6525,.3745-9.2374,1.3735-13.4193-9.4515-14.4807-12.828l15.6477,1.0592s-.6611,5.6839,.1318,10.1863c.0792,.3673,.1693,.7093,.2961,1.0375Z" style="fill:#263238;"></path></g><g><path d="M90.9891,304.4302c.0426,6.0885,8.0002,21.2254,13.073,23.5685,7.3543,3.3966,16.8916,.9578,19.1456-7.3102,2.1852-8.0144-8.5344-27.5577-13.9675-29.4294-8.0023-2.7565-18.314,4.1779-18.2511,13.1711Z" style="fill: rgb(255, 196, 192);"></path><g><path d="M106.6767,309.0063c.3999-.3361,.7123-.7127,1.0735-1.0858,.4071-.4214,.775-.7147,.8835-1.3162,.0579-.3227-.2222-.7148-.5302-.8006-.7175-.2002-1.3445,.1915-1.8554,.6785-.5545,.5286-.8466,1.0774-.9425,1.8359-.0931,.7354,.844,1.1316,1.3711,.6882Z" style="fill:#263238;"></path><path d="M117.1935,304.0092c-.5003,.1497-.9868,.2044-1.4966,.3013-.5758,.1093-1.0228,.2557-1.5852,.0162-.3019-.1282-.4755-.5774-.3786-.8823,.2261-.7098,.898-1.0185,1.5854-1.1786,.746-.1737,1.3654-.1167,2.0521,.2195,.6656,.3258,.4826,1.3262-.1771,1.5239Z" style="fill:#263238;"></path><path d="M113.2662,320.6897c.366,.1218,.776,.3355,1.1671,.1843,.3752-.1448,.7189-.5129,.9869-.8019,.0263-.0285,.0767-.0101,.0708,.0312-.0759,.5285-.5205,1.0525-1.0416,1.2016-.5088,.1462-.9378-.1463-1.2602-.5199-.0449-.0524,.0235-.113,.077-.0953Z" style="fill:#263238;"></path><path d="M112.847,317.0588c1.017,.6173,2.1084,.6941,3.1173,.4247,.4517-.1175,.8916-.314,1.2969-.559,.0826-.0424,.1618-.0922,.229-.1455,.0711-.0459,.135-.0878,.2102-.1452,.1121-.0765,.1301-.2086,.0949-.3331l-.0038-.0074c-.0193-.0375-.0346-.068-.0615-.1013l-.0036-.0077-.0462-.0898c-.366-.8083-1.0331-1.9836-1.0331-1.9836,.3623,.0041,2.1733-.0495,1.9469-.4551-1.883-3.3494-3.9773-7.0741-6.5587-10.0094-.0801-.101-.2414,.0098-.1762,.1185,1.6825,3.2907,3.9324,6.2631,5.6751,9.5416-.5617,.0506-1.4975,.0929-1.9105,.3042-.0973,.0877,1.33,2.2487,1.4652,2.6247,0,0,.0079,.0151,.0118,.0413-1.2566,.8229-2.4638,.9094-4.2023,.6419-.1053-.0216-.1538,.088-.0514,.1402Z" style="fill:#263238;"></path><g><path d="M116.5941,316.7492s-.2432,1.2981-1.0439,2.1131c-.2944,.3013-.654,.5389-1.1091,.6273-.9327,.1847-1.3224-.5642-1.4864-1.2876-.1368-.5939-.1129-1.1748-.1129-1.1748,0,0,1.7575,.5436,3.7523-.278Z" style="fill:#263238;"></path><path d="M115.5502,318.8623c-.2944,.3013-.654,.5389-1.1091,.6273-.9327,.1847-1.3224-.5642-1.4864-1.2876,.9308-.3404,2.1011-.165,2.5955,.6603Z" style="fill:#ff9abb;"></path></g><g><path d="M110.2587,310.3853c-.026-.0363-.0595,.0859-.0391,.1283,.5012,1.0289,.9024,2.2921,.1135,3.0621-.0245,.024,.002,.075,.0349,.0544,1.0796-.679,.5306-2.3503-.1093-3.2448Z" style="fill:#263238;"></path><path d="M108.8374,309.713c-1.7362,.6256-.3574,4.0522,1.2514,3.4727,1.5829-.5704,.204-3.9969-1.2514-3.4727Z" style="fill:#263238;"></path></g><g><path d="M116.2702,307.4896c-.0077-.0436,.1031,.0175,.119,.0619,.385,1.0779,1.0077,2.2477,2.1101,2.2223,.0341-.0008,.0521,.0539,.0144,.0629-1.2404,.2971-2.0512-1.2641-2.2435-2.3471Z" style="fill:#263238;"></path><path d="M116.7834,306.0038c1.6612-.804,3.1469,2.5778,1.6079,3.3225-1.5147,.7325-3.0002-2.6488-1.6079-3.3225Z" style="fill:#263238;"></path></g></g><path d="M114.7598,296.33c-1.2073-1.1016-2.51-2.1736-3.4559-2.0732-.9459,.1004-.1763,2.8509-1.9932,3.822-2.4528,1.311-5.3454-.9808-8.8083,.7903-4.293,2.1957-5.0846,6.4406-1.958,13.706,2.7928,6.4889-.5122,8.9981-.5122,8.9981,0,0-9.5232-12.9407-7.6383-19.4469,1.8851-6.5063,10.1308-12.7206,18.3197-11.0136,2.9852,.6224,6.0462,5.2173,6.0462,5.2173Z" style="fill:#263238;"></path><g><path d="M98.514,316.4415s-5.3347-3.9498-7.2443-1.8795c-1.9101,2.0703,3.3074,8.6387,6.3981,8.7412,3.0903,.1021,3.2411-2.7569,3.2411-2.7569l-2.3949-4.1048Z" style="fill: rgb(255, 196, 192);"></path><path d="M92.8118,316.4077c-.0455,.0107-.0335,.0753,.0101,.0784,2.1883,.1347,3.8012,1.5817,5.1319,3.1961-.8117-.5211-1.723-.6501-2.4495,.3514-.038,.0528,.0363,.1153,.0867,.0856,.7328-.4335,1.3478-.4874,2.0928-.034,.5274,.3211,.975,.8006,1.4188,1.2268,.1478,.142,.428-.0541,.2958-.2308l-.0307-.0392c-.7742-2.4728-3.8358-5.2707-6.5559-4.6343Z" style="fill:#263238;"></path></g><g><path d="M103.9384,291.0393c-2.0943-.0958-4.5464-.09-7.1522,.5526-2.606,.643-10.21,4.2611-11.4863,6.554-1.2762,2.293,1.067,9.8679,1.4315,10.9686,.3643,1.1007,3.3579,7.4436,6.3282,8.1104,2.9701,.6671-1.0673-10.5124,1.2528-15.6268,2.3198-5.114,9.626-10.5588,9.626-10.5588Z" style="fill:#FFBA00;"></path><path d="M103.9405,291.0407s-7.3089,5.4441-9.6258,10.5588c-2.3243,5.1108,1.7158,16.2927-1.2567,15.6293-1.3086-.2947-2.2113-1.1323-3.3065-2.702-.7507-3.4314-1.3726-8.9653-.0094-13.4874,1.2769-4.2361,4.9971-7.5596,9.4544-9.8771,1.7049-.2073,3.3059-.1883,4.744-.1216Z" style="opacity:.1;"></path><g><path d="M96.2368,323.5624c-.9245-3.0376-.9606-12.106,.4489-17.854,1.4096-5.7479,9.6612-11.9609,10.9861-12.3847,3.2157-1.0279,4.4848,.2115,4.8747-.2613,.3901-.4731-4.1307-2.8382-5.2201-3.0277-1.0898-.1893-3.4147,.0231-4.77,.5819s-9.4666,4.6381-11.1499,9.413c-1.683,4.7751-2.1461,16.5212-.3593,18.7962,.4286,.5456,1.4056,.6281,2.0056,1.4052,.7877,1.0203,1.5421,2.2605,2.1996,2.9325,.5305,.5422,1.065,.6636,.9844,.3989Z" style="fill:#FFBA00;"></path><g><path d="M96.6288,303.3935c-.8984-.1691-1.7623-.3963-2.6208-.7139-.8471-.3134-1.7168-.6886-2.467-1.1951-.0547-.0371-.1209,.0364-.0676,.0805,.7396,.6086,1.5009,1.1323,2.3975,1.4849,.8609,.3387,1.8216,.5243,2.7482,.5207,.1029-.0004,.1073-.1587,.0097-.1771Z" style="fill:#263238;"></path><path d="M95.0733,320.6211c-.1643-.1819-.377-.3166-.5572-.4827-.2057-.1895-.395-.3965-.5567-.625-.3094-.4376-.4844-.9367-.8875-1.306-.3191-.2931-.6963-.5044-1.0707-.7173-.4267-.2422-.8561-.5029-1.0441-.9774-.0252-.0627-.1232-.0278-.0993,.0355,.3415,.8998,1.1894,1.3055,1.8703,1.9061,.4362,.3845,.6342,.9352,.9956,1.3798,.3061,.3767,.7579,.8377,1.2548,.9347,.0742,.0144,.1525-.0838,.0948-.1477Z" style="fill:#263238;"></path><path d="M94.8651,317.0345c-.4099-.2295-.8267-.4143-1.2159-.6849-.373-.2592-.7258-.5544-1.0603-.8614-.3306-.3034-.6356-.6324-.96-.9421-.3831-.3662-.8142-.6907-1.1788-1.0742-.0467-.049-.1139,.0319-.0675,.0808,.3785,.3977,.6882,.8624,1.054,1.2735,.3153,.3544,.6684,.6806,1.0267,.9906,.3458,.2985,.7109,.567,1.1073,.7945,.3759,.2153,.8403,.4351,1.2769,.4775,.0324,.0035,.0468-.038,.0176-.0543Z" style="fill:#263238;"></path><path d="M94.8292,313.7313c-.8098-.2855-1.6139-.6901-2.3074-1.1979-.6848-.5012-1.3436-1.0457-1.9929-1.592-.0437-.0372-.1166,.0243-.0767,.0706,.58,.6706,1.1508,1.3381,1.8811,1.8528,.3461,.2438,.7182,.4874,1.1132,.644,.4298,.1704,.892,.2632,1.349,.3269,.0586,.0078,.0958-.0825,.0337-.1044Z" style="fill:#263238;"></path><path d="M94.9363,310.5145c-.4102-.0699-.739-.2782-1.088-.4902-.383-.2329-.7617-.4751-1.1313-.7288-.355-.2437-.7164-.4774-1.071-.7215-.3569-.2455-.7189-.5059-.9474-.8819-.0306-.0501-.1163-.0063-.0927,.048,.1775,.4055,.4659,.724,.7838,1.0251,.3482,.3297,.7135,.6342,1.1133,.8995,.393,.26,.7977,.5012,1.2207,.7094,.3687,.1815,.7875,.3526,1.2045,.2863,.0787-.0128,.095-.1313,.0081-.1459Z" style="fill:#263238;"></path><path d="M94.4315,306.681c-.3776-.1632-.7521-.3284-1.116-.5212-.3617-.1919-.7152-.4024-1.0638-.6166-.3647-.2244-.74-.4437-1.0897-.6903-.0555-.039-.1154,.0326-.0676,.0808,.3057,.308,.6072,.6063,.958,.8653,.3433,.2538,.7042,.4756,1.0801,.6785,.3686,.199,.7491,.3886,1.1408,.5387,.3775,.1448,.8093,.3162,1.2188,.3024,.061-.002,.0947-.0929,.0418-.1298-.3269-.2277-.7379-.3503-1.1024-.5078Z" style="fill:#263238;"></path><path d="M98.2491,300.8425c-.4309-.251-.8518-.4971-1.3053-.7064-.4603-.2128-.9377-.3948-1.4185-.5548-.9423-.3135-1.8983-.5623-2.8877-.6639-.055-.0053-.0924,.0782-.0322,.0996,1.8587,.6597,3.7462,1.2428,5.5989,1.9206,.0637,.0232,.1036-.061,.0448-.0951Z" style="fill:#263238;"></path><path d="M99.0646,297.6256c-.4356-.2403-.8911-.4312-1.3692-.5667-1.001-.2837-2.0391-.3768-3.0743-.4355-.066-.0037-.0875,.0882-.0195,.1034,.9621,.2148,1.929,.4135,2.8777,.6833,.4677,.133,.9386,.2754,1.3891,.4593,.4535,.1852,.8531,.4619,1.2951,.6648,.0342,.0158,.0738-.0263,.0489-.0585-.2872-.3676-.7448-.6279-1.1478-.8501Z" style="fill:#263238;"></path><path d="M101.0798,295.52c-.4097-.2447-.8418-.4378-1.292-.5946-.8543-.2974-1.7424-.4363-2.6461-.4369-.0602,0-.0635,.0941-.0058,.1041,.8843,.1559,1.7607,.3894,2.6053,.694,.4242,.153,.8403,.3282,1.2578,.4979,.4156,.1686,.8139,.4305,1.2437,.5558,.0352,.0101,.0515-.0386,.0283-.0599-.3386-.3076-.8001-.5268-1.1912-.7604Z" style="fill:#263238;"></path><path d="M102.2924,293.3633c-.4077-.1336-.8211-.2446-1.2356-.3536-.4097-.1074-.8235-.2075-1.2493-.1828-.0637,.0038-.0587,.0874-.0054,.1043,.7898,.2479,1.5764,.5146,2.361,.78,.7396,.25,1.3449,.7055,2.0094,1.0973,.0293,.0173,.0629-.0247,.0425-.0508-.508-.6437-1.1396-1.1382-1.9226-1.3944Z" style="fill:#263238;"></path><path d="M104.3277,292.0344c-.7799-.3434-1.6032-.4402-2.4452-.471-.059-.0021-.0649,.0988-.0058,.1041,.7977,.0719,1.5787,.3536,2.3126,.6596,.7493,.3126,1.4287,.7452,2.0904,1.2104,.0316,.0221,.0822-.015,.0534-.0496-.5302-.6425-1.2482-1.12-2.0054-1.4535Z" style="fill:#263238;"></path><path d="M107.7422,292.2407c-.1313-.128-.2788-.243-.4259-.3522-.2982-.2205-.6314-.3969-.9683-.5507-.6913-.315-1.4357-.4769-2.1728-.6468-.0661-.0152-.0858,.0895-.0195,.1034,.721,.1511,1.4156,.407,2.08,.7241,.3271,.1561,.6357,.3405,.936,.5425,.147,.0988,.286,.2061,.4236,.3174,.1295,.1048,.2591,.2476,.4055,.3246,.0389,.0207,.09-.0236,.072-.0652-.065-.1491-.2148-.2843-.3306-.3971Z" style="fill:#263238;"></path><path d="M109.5818,291.7155c-.2589-.167-.5205-.3193-.797-.4556-.2752-.1358-.5517-.254-.8419-.3544-.2955-.1023-.5961-.1929-.8867-.3081-.0698-.0279-.1052,.076-.0321,.0991,.2996,.0948,.5851,.235,.8635,.3793,.2635,.1367,.5286,.2698,.7925,.4059,.2635,.1358,.5272,.2709,.7896,.4083,.2651,.1389,.5222,.3194,.8006,.428,.0459,.0181,.0779-.0359,.045-.0701-.205-.2137-.486-.3724-.7335-.5324Z" style="fill:#263238;"></path></g></g></g></g></g><path d="M112.7961,346.561s-11.568-14.775-23.5936-14.8063l2.1603,8.7477s7.0525-.9093,20.9326,8.7274l.5007-2.6688Z" style="fill:#FFBA00;"></path><g><path d="M88.1982,341.0833c2.1282-.553,4.3405-.3562,6.4544,.0171,2.1284,.3805,4.1823,1.0922,6.1645,1.9461,1.9962,.8273,3.8963,1.874,5.7694,2.9587l2.7428,1.7485,2.6645,1.8752,.2989,.2105,.2776-.1917c2.0706-1.4283,4.0167-2.9886,5.8651-4.6768,.9188-.8469,1.8264-1.7097,2.6391-2.6635,.8177-.9448,4.19-5.0179,4.6379-7.7262-1.0551,2.7037-5.8112,8.3152-7.7096,9.888-.9544,.7821-1.9445,1.5214-2.9463,2.2414-1.0008,.7178-2.0098,1.4406-3.0361,2.1013l.5762,.0187-2.6769-1.9458c-.9176-.6133-1.8521-1.2053-2.7873-1.7929-.9689-.5343-1.9274-1.0886-2.9157-1.5869-1.0071-.4641-1.9963-.9631-3.0443-1.3351-2.0556-.8313-4.2269-1.3901-6.4282-1.6721-.548-.0808-1.1062-.1018-1.6582-.139-.5556,.0035-1.1105-.0077-1.6627,.0395-1.1014,.0693-2.2131,.2512-3.2251,.685Z" style="fill:#263238;"></path><path d="M85.6299,347.1165c1.1133-.9655,2.1054-2.0362,3.0691-3.1314,.9481-1.1087,1.8672-2.2427,2.6638-3.4827-1.1144,.9644-2.1064,2.0353-3.0691,3.1313-.9475,1.1094-1.8661,2.2436-2.6638,3.4828Z" style="fill:#263238;"></path></g><g><path d="M107.6143,344.3365s-.3453,4.7042,.4364,11.3308c.3094,2.6229,2.6238,11.8634,5.4834,11.1194,2.8596-.7443-2.7197-6.1385-4.2407-10.9703-1.544-4.905-.7041-8.6393-.9407-11.6263l-.7384,.1464Z" style="fill:#FFBA00;"></path><g style="opacity:.1;"><path d="M107.6143,344.3365s-.3453,4.7042,.4364,11.3308c.3094,2.6229,2.6238,11.8634,5.4834,11.1194,2.8596-.7443-2.7197-6.1385-4.2407-10.9703-1.544-4.905-.7041-8.6393-.9407-11.6263l-.7384,.1464Z"></path></g></g><g><path d="M117.9994,343.4141s2.0458,4.7527,3.6817,10.5783c.6474,2.306,1.9021,10.8532-.7527,11.2179-2.6545,.3649,.1577-6.0865-.2377-10.6631-.4013-4.6461-2.5264-8.4143-3.3607-11.0005l.6694-.1326Z" style="fill:#FFBA00;"></path><g style="opacity:.1;"><path d="M117.9994,343.4141s2.0458,4.7527,3.6817,10.5783c.6474,2.306,1.9021,10.8532-.7527,11.2179-2.6545,.3649,.1577-6.0865-.2377-10.6631-.4013-4.6461-2.5264-8.4143-3.3607-11.0005l.6694-.1326Z"></path></g></g></g></g></g></g></svg>